<svg version="1.1" id="Layer_1" xmlns="http://www.w3.org/2000/svg" xmlns:xlink="http://www.w3.org/1999/xlink" x="0px" y="0px"
	 width="100%" viewBox="0 0 1024 1024" enable-background="new 0 0 1024 1024" xml:space="preserve">
<path fill="#080808" opacity="1.000000" stroke="none" 
	d="
M677.000000,1025.000000 
	C451.333344,1025.000000 226.166672,1025.000000 1.000000,1025.000000 
	C1.000000,683.666687 1.000000,342.333344 1.000000,1.000000 
	C342.333344,1.000000 683.666687,1.000000 1025.000000,1.000000 
	C1025.000000,342.333344 1025.000000,683.666687 1025.000000,1025.000000 
	C909.166687,1025.000000 793.333313,1025.000000 677.000000,1025.000000 
M353.336670,442.071106 
	C352.495239,442.693909 351.653809,443.316711 350.244720,443.974304 
	C349.824493,444.298126 349.404236,444.621918 348.344818,445.068329 
	C347.494324,445.690216 346.643860,446.312073 345.233246,446.973785 
	C344.819031,447.303772 344.404846,447.633728 343.358307,448.094269 
	C342.522003,448.713867 341.685699,449.333435 340.296997,450.020630 
	C339.865021,450.348572 339.433014,450.676514 338.368835,451.095337 
	C337.538666,451.703094 336.708466,452.310822 335.963318,452.974304 
	C335.963318,452.974304 335.925812,452.879822 335.242462,453.042389 
	C332.971649,454.428101 330.700806,455.813812 328.171417,457.750305 
	C328.317017,457.891510 328.462585,458.032745 327.825470,458.279449 
	C327.600128,458.725128 327.374786,459.170776 326.878418,459.153107 
	C326.550995,459.089020 326.223572,459.024933 325.412811,459.030304 
	C324.509430,459.671326 323.606079,460.312347 322.247009,460.972931 
	C322.247009,460.972931 321.878235,461.241302 321.201233,461.486328 
	C320.061798,462.297455 318.922363,463.108551 317.243866,463.995056 
	C316.827209,464.323730 316.410553,464.652405 315.358521,465.071991 
	C314.523804,465.680664 313.689056,466.289337 312.949249,466.955261 
	C312.949249,466.955261 312.905182,466.853577 312.246796,467.007721 
	C310.790466,467.977936 309.334137,468.948120 307.964142,469.972656 
	C307.964142,469.972656 307.924866,469.878510 307.287659,470.026642 
	C306.428802,470.649323 305.569916,471.272003 304.159302,471.921631 
	C303.760345,472.245026 303.361389,472.568420 302.330902,473.045349 
	C301.483490,473.671173 300.636108,474.296997 299.235107,474.976868 
	C298.817230,475.299530 298.399353,475.622192 297.352234,476.055908 
	C296.524811,476.674561 295.697357,477.293243 294.959656,477.966248 
	C294.959656,477.966248 294.918365,477.869812 294.256531,478.011047 
	C292.798859,478.981903 291.341156,479.952759 289.964874,480.978424 
	C289.964874,480.978424 289.931244,480.886200 289.270477,481.032135 
	C287.807220,481.995056 286.343994,482.958008 284.966736,483.973907 
	C284.966736,483.973907 284.926697,483.881165 284.296936,484.033722 
	C283.457153,484.661865 282.617340,485.290009 281.219910,485.960602 
	C280.800964,486.271576 280.382050,486.582581 279.335266,487.028564 
	C278.499481,487.643188 277.663727,488.257843 276.935852,488.932159 
	C276.935852,488.932159 276.878296,488.823151 276.248810,488.989105 
	C275.404572,489.624512 274.560303,490.259888 273.124756,490.969269 
	C272.396118,491.590912 271.667480,492.212585 270.293549,493.081879 
	C265.802277,496.171356 264.971771,500.676514 264.978607,505.761322 
	C265.047913,557.235474 265.008209,608.709839 265.071625,660.184082 
	C265.075928,663.659912 265.252228,667.241638 266.112457,670.577087 
	C266.813843,673.296692 268.111450,676.330566 270.122345,678.136475 
	C273.273529,680.966431 277.249023,682.878601 280.935242,685.068970 
	C280.935242,685.068970 280.825562,685.130371 281.111725,685.708496 
	C282.407074,686.411682 283.702393,687.114807 285.361359,688.044189 
	C285.361359,688.044189 285.788177,688.079224 286.123840,688.701416 
	C291.735962,691.838440 297.348083,694.975464 303.200806,698.621765 
	C303.730530,698.776184 304.260223,698.930603 305.124603,699.695801 
	C308.475555,701.612549 311.826508,703.529358 315.350006,705.700562 
	C315.350006,705.700562 315.638519,705.806824 316.171814,706.094055 
	C317.780426,706.994812 319.389069,707.895630 321.378723,709.024414 
	C321.378723,709.024414 321.820862,709.065857 322.131226,709.656921 
	C323.828705,710.591125 325.526184,711.525391 327.385468,712.674011 
	C327.385468,712.674011 327.632935,712.778381 328.137085,713.094971 
	C329.519958,713.889282 330.902832,714.683533 332.434662,715.628479 
	C332.434662,715.628479 332.623505,715.724487 333.176575,716.050232 
	C337.116943,718.311279 341.057281,720.572266 345.353058,723.056580 
	C345.353058,723.056580 345.771790,723.085938 346.031891,723.637085 
	C347.396454,724.366516 348.760986,725.095886 350.947540,726.277100 
	C351.200073,726.092773 351.452637,725.908447 351.818848,725.701050 
	C351.818848,725.701050 351.934875,725.702087 351.377472,726.232971 
	C362.925262,733.135010 374.473083,740.037048 386.543060,747.383362 
	C389.694611,749.187927 392.846161,750.992493 396.345459,753.047485 
	C396.345459,753.047485 396.772278,753.085510 397.109009,753.709412 
	C406.061890,758.837280 415.014801,763.965149 424.217804,769.599182 
	C424.747406,769.758789 425.277008,769.918396 426.123230,770.665100 
	C427.822601,771.595520 429.521973,772.525879 431.386292,773.671875 
	C431.386292,773.671875 431.638794,773.771606 432.184418,774.065979 
	C434.154633,775.186768 436.124817,776.307495 438.299194,777.774048 
	C438.299194,777.774048 438.688110,777.873657 439.212067,778.154358 
	C440.449768,778.810486 441.687500,779.466614 442.961151,780.027344 
	C442.961151,780.027344 442.876190,780.083557 443.229828,780.696533 
	C445.129944,781.717163 447.030060,782.737793 449.271271,784.021729 
	C449.271271,784.021729 449.701660,784.042603 449.979919,784.586975 
	C454.775818,787.393555 459.658051,790.064148 464.346710,793.039795 
	C470.845490,797.164185 477.131195,797.366333 483.559784,792.592957 
	C483.559784,792.592957 483.694214,792.459412 484.272095,792.133423 
	C492.948029,786.752808 501.623932,781.372253 510.792480,775.971069 
	C510.792480,775.971069 511.199890,775.693420 511.870789,775.385925 
	C517.705444,771.843262 523.540039,768.300659 529.607239,764.651123 
	C529.607239,764.651123 529.761047,764.446655 530.317566,764.117798 
	C532.977051,762.422180 535.636536,760.726501 538.788879,758.997375 
	C538.788879,758.997375 539.180786,758.696594 539.819763,758.425537 
	C540.920288,757.643921 542.020874,756.862305 543.035400,756.025696 
	C543.035400,756.025696 543.074890,756.119812 543.688293,755.979736 
	C544.915039,755.249390 546.141785,754.518982 547.633057,753.678894 
	C547.633057,753.678894 547.795044,753.442749 548.350952,753.110962 
	C551.000549,751.416565 553.650146,749.722107 556.808350,747.999512 
	C556.949890,747.905823 557.091492,747.812073 557.858643,747.437988 
	C559.370483,746.522705 560.882324,745.607483 562.552856,744.590332 
	C562.552856,744.590332 562.687317,744.458130 563.261841,744.131592 
	C565.884277,742.450073 568.506653,740.768555 571.039124,739.032837 
	C571.039124,739.032837 571.081482,739.128967 571.734253,738.966248 
	C573.186951,737.996704 574.639709,737.027161 576.024292,736.004822 
	C576.024292,736.004822 576.050842,736.086792 576.733398,735.945068 
	C579.254761,734.302185 581.776184,732.659363 584.762146,731.004578 
	C584.762146,731.004578 585.148743,730.746643 585.790833,730.523315 
	C586.520996,729.999756 587.251099,729.476257 588.667725,728.833557 
	C607.183472,717.562134 625.715271,706.316833 644.211060,695.012695 
	C668.158691,680.376648 692.077637,665.693604 716.637390,650.914185 
	C717.469788,650.303406 718.302124,649.692566 719.049377,649.044250 
	C719.049377,649.044250 719.075500,649.133484 719.710388,648.975464 
	C720.563171,648.345947 721.415955,647.716492 722.696411,647.027710 
	C722.992676,646.883179 723.127869,646.646606 723.680481,646.054626 
	C724.166077,645.384277 724.651672,644.713928 725.706116,643.812439 
	C725.836975,643.222778 725.967896,642.633057 726.742432,641.578186 
	C726.795593,639.722046 726.848694,637.865906 727.081299,635.146118 
	C727.021667,633.094177 726.962036,631.042236 727.046143,628.144714 
	C726.998413,626.432434 726.950684,624.720154 727.085266,622.085144 
	C727.091858,613.782043 727.118103,605.478882 727.101440,597.175842 
	C727.047729,570.445740 726.978210,543.715698 727.046204,516.501831 
	C727.002136,516.340698 726.958008,516.179504 727.095398,515.094116 
	C727.036926,487.057617 726.978394,459.021118 727.065918,430.335175 
	C727.017395,429.896790 726.968872,429.458405 727.104980,428.103760 
	C727.043091,423.730591 726.981140,419.357422 727.062988,414.250122 
	C727.015015,413.506836 726.967041,412.763519 727.104126,411.096436 
	C727.032593,403.393951 726.961060,395.691498 727.004456,387.208252 
	C726.027710,384.764099 725.051025,382.319946 724.036682,379.963226 
	C724.036682,379.963226 724.123962,379.925293 723.862183,379.344757 
	C722.934021,378.850616 722.005859,378.356445 721.050781,377.951813 
	C721.050781,377.951813 721.136963,377.915619 720.847717,377.344147 
	C719.896973,376.886139 718.946289,376.428131 717.648926,375.372467 
	C671.059448,348.076172 624.473694,320.773499 577.878967,293.486267 
	C553.942627,279.468506 529.958679,265.531647 506.066132,251.439713 
	C499.714722,247.693634 493.703430,247.655731 487.474518,251.574539 
	C481.327789,255.441635 475.041077,259.085510 468.838593,262.864746 
	C445.873413,276.857697 422.917664,290.866089 399.301636,305.042145 
	C397.834747,306.009583 396.367828,306.976990 394.974365,307.985657 
	C394.974365,307.985657 394.949646,307.905151 394.293396,308.070557 
	C392.827911,309.027557 391.362427,309.984558 389.973267,310.981079 
	C389.973267,310.981079 389.946350,310.899475 389.315521,311.061615 
	C388.457642,311.680603 387.599762,312.299591 386.184082,312.936066 
	C385.783173,313.269226 385.382263,313.602356 384.356110,314.072083 
	C383.516418,314.680084 382.676727,315.288055 381.926544,315.928436 
	C381.926544,315.928436 381.902954,315.836212 381.238281,316.000580 
	C379.745605,316.975128 378.252930,317.949677 376.196045,318.938324 
	C375.789398,319.266144 375.382751,319.593964 374.355865,320.085541 
	C373.526154,320.709747 372.696442,321.333954 371.408905,322.018707 
	C371.074677,322.140747 370.910034,322.379669 370.256592,323.046295 
	C366.901978,326.035034 366.721405,329.925629 366.987335,334.915100 
	C367.037933,341.950867 367.088501,348.986633 367.009430,356.753143 
	C367.052643,357.491425 367.095825,358.229706 366.975281,359.895996 
	C367.030945,365.938263 367.086609,371.980560 367.013672,378.864960 
	C367.055756,380.565796 367.097870,382.266602 366.976196,384.821045 
	C367.029572,386.554565 367.082947,388.288055 367.006805,390.666656 
	C367.049530,391.101074 367.092224,391.535522 366.971680,392.770569 
	C367.026794,393.854431 367.081909,394.938324 367.006378,396.805054 
	C367.049072,397.859589 367.091736,398.914154 366.967804,400.896881 
	C367.020203,409.938446 367.072632,418.980042 366.991852,428.804779 
	C367.035797,429.859833 367.079773,430.914886 366.965179,432.587524 
	C366.621796,433.325317 366.278381,434.063080 365.254028,434.990692 
	C363.122894,436.312927 360.991730,437.635132 358.300659,439.005249 
	C357.868896,439.343048 357.437134,439.680847 356.378326,440.098907 
	C355.562988,440.720856 354.747681,441.342834 353.985870,442.003479 
	C353.985870,442.003479 353.969849,441.939484 353.336670,442.071106 
z"/>
<path fill="#EEEBE5" opacity="1.000000" stroke="none" 
	d="
M585.148743,730.746643 
	C585.148743,730.746643 584.762146,731.004578 584.436279,730.680908 
	C580.007263,730.274414 577.294800,732.147766 576.050842,736.086792 
	C576.050842,736.086792 576.024292,736.004822 575.680420,736.020569 
	C573.918274,737.067200 572.499878,738.098083 571.081482,739.129028 
	C571.081482,739.128967 571.039124,739.032837 570.690308,739.039185 
	C567.529053,740.480591 562.459351,738.723572 562.687317,744.458130 
	C562.687317,744.458130 562.552856,744.590332 562.097595,744.472168 
	C560.172607,745.475525 558.702820,746.596924 557.233093,747.718384 
	C557.091492,747.812073 556.949890,747.905823 556.458740,747.681030 
	C551.670715,747.109619 548.828003,749.038879 547.795044,753.442749 
	C547.795044,753.442749 547.633057,753.678894 547.154541,753.526184 
	C545.475586,754.288940 544.275269,755.204346 543.074890,756.119812 
	C543.074890,756.119812 543.035400,756.025696 542.656616,756.030579 
	C541.245483,756.922546 540.213135,757.809570 539.180786,758.696594 
	C539.180786,758.696594 538.788879,758.997375 538.452942,758.686523 
	C535.978333,758.999634 533.622864,759.266113 531.782837,760.382385 
	C530.689453,761.045776 530.407715,763.046936 529.761047,764.446655 
	C529.761047,764.446655 529.607239,764.651123 529.135132,764.502563 
	C522.946106,767.335144 517.209106,770.279724 511.552979,773.372253 
	C511.136719,773.599854 511.303955,774.894714 511.199890,775.693420 
	C511.199890,775.693420 510.792480,775.971069 510.446838,775.653015 
	C509.534760,775.185730 508.782104,774.723450 508.429108,774.933289 
	C500.374451,779.722229 492.337311,784.542847 484.395966,789.515686 
	C483.786530,789.897217 483.910919,791.450684 483.694214,792.459412 
	C483.694214,792.459412 483.559784,792.592957 483.091309,792.475830 
	C477.367615,793.050476 472.045868,795.289490 466.890137,792.217957 
	C462.674561,789.706543 458.700653,786.781189 454.430939,784.373962 
	C453.187469,783.672913 451.296051,784.121216 449.701660,784.042603 
	C449.701660,784.042603 449.271271,784.021729 449.046295,783.493164 
	C446.839600,782.004272 444.857910,781.043884 442.876190,780.083557 
	C442.876190,780.083557 442.961151,780.027344 442.914795,779.705811 
	C441.474976,778.880676 440.081543,778.377197 438.688110,777.873657 
	C438.688110,777.873657 438.299194,777.774048 438.408447,777.262207 
	C437.686951,772.380859 434.290344,773.936462 431.638794,773.771606 
	C431.638794,773.771606 431.386292,773.671875 431.484711,773.232117 
	C430.981903,769.069336 428.768341,768.777588 425.806610,770.078003 
	C425.277008,769.918396 424.747406,769.758789 424.069672,768.983887 
	C423.116547,767.365234 422.510132,766.022095 421.473053,765.416016 
	C416.295624,762.390564 411.066162,759.439392 405.729675,756.706787 
	C402.874390,755.244812 399.766266,754.276611 396.772278,753.085571 
	C396.772278,753.085510 396.345459,753.047485 396.159912,752.566772 
	C393.452393,748.831421 390.681885,746.057312 386.020905,746.939026 
	C374.473083,740.037048 362.925262,733.135010 351.561951,725.729309 
	C351.658447,725.134216 351.570496,725.042786 351.482544,724.951355 
	C351.556763,725.208923 351.630981,725.466553 351.705170,725.724121 
	C351.452637,725.908447 351.200073,726.092773 350.431366,725.648071 
	C348.534058,724.374695 347.152924,723.730347 345.771790,723.085938 
	C345.771790,723.085938 345.353058,723.056580 345.169128,722.580933 
	C342.535706,716.741028 337.481995,716.421875 332.623505,715.724487 
	C332.623505,715.724487 332.434662,715.628479 332.515076,715.195679 
	C330.941315,714.101379 329.287109,713.439880 327.632935,712.778381 
	C327.632935,712.778381 327.385468,712.674011 327.485962,712.199707 
	C327.175690,707.562927 323.967407,709.465271 321.820862,709.065857 
	C321.820862,709.065857 321.378723,709.024414 321.177368,708.523010 
	C320.362518,704.474182 318.235779,704.573547 315.638519,705.806824 
	C315.638519,705.806824 315.350006,705.700562 315.456177,705.239624 
	C314.015320,701.430298 308.459808,698.493958 304.789948,699.084961 
	C304.260223,698.930603 303.730530,698.776184 303.087280,697.987549 
	C297.783051,693.265320 293.215790,688.022034 285.788177,688.079224 
	C285.788177,688.079224 285.361359,688.044189 285.164734,687.552246 
	C283.587280,686.416992 282.206421,685.773682 280.825562,685.130371 
	C280.825562,685.130371 280.935242,685.068970 280.913788,684.764038 
	C279.184357,682.767883 277.751892,680.541382 275.713440,679.492004 
	C270.835052,676.980591 267.538086,673.597473 267.325012,667.657959 
	C267.745789,666.391174 267.985382,665.413513 267.985687,664.435669 
	C268.002686,613.038513 268.007019,561.641357 267.957855,510.244232 
	C267.956543,508.847717 267.355225,507.451752 267.025330,505.667267 
	C267.022827,504.502380 267.028625,503.725769 267.278442,502.776428 
	C267.362457,501.755859 267.202423,500.907990 267.163116,499.738007 
	C268.502167,497.221985 269.720490,495.028107 270.938843,492.834229 
	C271.667480,492.212585 272.396118,491.590912 273.805237,490.957733 
	C275.283234,490.238525 276.080750,489.530823 276.878296,488.823120 
	C276.878296,488.823151 276.935852,488.932159 277.254333,488.935211 
	C278.369568,488.256683 279.166321,487.575073 279.963104,486.893524 
	C280.382050,486.582581 280.800964,486.271576 281.876068,485.959045 
	C283.330383,485.265411 284.128540,484.573273 284.926697,483.881165 
	C284.926697,483.881165 284.966736,483.973907 285.302490,483.966644 
	C287.069244,482.934998 288.500244,481.910583 289.931244,480.886169 
	C289.931244,480.886200 289.964874,480.978424 290.303467,480.968140 
	C292.067505,479.928497 293.492950,478.899170 294.918365,477.869812 
	C294.918365,477.869812 294.959656,477.966248 295.281525,477.959961 
	C296.396088,477.284058 297.188782,476.614441 297.981445,475.944824 
	C298.399353,475.622192 298.817230,475.299530 299.888184,474.967224 
	C301.348297,474.269012 302.155365,473.580414 302.962402,472.891785 
	C303.361389,472.568420 303.760345,472.245026 304.817535,471.934357 
	C306.292145,471.257538 307.108490,470.568024 307.924866,469.878479 
	C307.924866,469.878510 307.964142,469.972656 308.301147,469.965332 
	C310.060516,468.923218 311.482849,467.888397 312.905182,466.853577 
	C312.905182,466.853577 312.949249,466.955261 313.267456,466.951935 
	C314.388397,466.292755 315.191132,465.636902 315.993896,464.981079 
	C316.410553,464.652405 316.827209,464.323730 317.917480,463.977600 
	C319.686798,463.053864 320.782501,462.147552 321.878235,461.241272 
	C321.878235,461.241302 322.247009,460.972931 322.578217,461.306824 
	C323.904999,460.747437 324.900574,459.854156 325.896149,458.960846 
	C326.223572,459.024933 326.550995,459.089020 327.434875,459.372498 
	C328.196960,459.119263 328.402557,458.646606 328.608185,458.173950 
	C328.462585,458.032745 328.317017,457.891510 328.634277,457.710052 
	C331.373352,456.073120 333.649567,454.476471 335.925781,452.879822 
	C335.925812,452.879822 335.963318,452.974304 336.283325,452.965332 
	C337.402557,452.305725 338.201782,451.655090 339.001038,451.004456 
	C339.433014,450.676514 339.865021,450.348572 340.940796,449.996613 
	C342.386597,449.302948 343.188599,448.633331 343.990631,447.963715 
	C344.404846,447.633728 344.819031,447.303772 345.886322,446.971863 
	C347.354279,446.295197 348.169128,445.620483 348.984009,444.945740 
	C349.404236,444.621918 349.824493,444.298126 350.900024,443.971436 
	C352.360168,443.292206 353.165009,442.615814 353.969849,441.939453 
	C353.969849,441.939484 353.985870,442.003479 354.316772,441.979004 
	C355.433563,441.309265 356.219482,440.663940 357.005371,440.018677 
	C357.437134,439.680847 357.868896,439.343048 358.967224,438.981781 
	C361.734192,437.572479 363.834595,436.186676 365.934998,434.800842 
	C366.278381,434.063080 366.621796,433.325317 367.284943,432.063599 
	C367.444794,430.367004 367.284912,429.194305 367.125031,428.021606 
	C367.072632,418.980042 367.020203,409.938446 367.289185,400.216492 
	C367.452728,398.364807 367.294891,397.193481 367.137054,396.022186 
	C367.081909,394.938324 367.026794,393.854431 367.260498,392.225861 
	C367.411621,391.127960 367.273956,390.574768 367.136292,390.021576 
	C367.082947,388.288055 367.029572,386.554565 367.307800,384.138062 
	C367.473694,381.644318 367.308014,379.833557 367.142303,378.022827 
	C367.086609,371.980560 367.030945,365.938263 367.284119,359.245087 
	C367.441681,357.736908 367.290405,356.879669 367.139099,356.022400 
	C367.088501,348.986633 367.037933,341.950867 367.434174,334.363251 
	C368.892365,330.119415 369.903717,326.427429 370.915039,322.735443 
	C370.910034,322.379669 371.074677,322.140747 372.006409,321.991455 
	C373.394653,321.283386 374.185364,320.602570 374.976074,319.921814 
	C375.382751,319.593964 375.789398,319.266144 376.865936,318.951782 
	C378.991547,317.922272 380.447266,316.879242 381.902954,315.836212 
	C381.902954,315.836212 381.926544,315.928436 382.251770,315.937500 
	C383.378418,315.276184 384.179901,314.605865 384.981354,313.935516 
	C385.382263,313.602356 385.783173,313.269226 386.841492,312.947388 
	C388.314697,312.272278 389.130524,311.585876 389.946350,310.899475 
	C389.946350,310.899475 389.973267,310.981079 390.312256,310.972900 
	C392.084045,309.944885 393.516846,308.925018 394.949646,307.905151 
	C394.949646,307.905151 394.974365,307.985657 395.316223,307.972687 
	C397.091492,306.929352 398.524902,305.898987 399.958344,304.868652 
	C422.917664,290.866089 445.873413,276.857697 468.838593,262.864746 
	C475.041077,259.085510 481.327789,255.441635 487.474518,251.574539 
	C493.703430,247.655731 499.714722,247.693634 506.066132,251.439713 
	C529.958679,265.531647 553.942627,279.468506 577.878967,293.486267 
	C624.473694,320.773499 671.059448,348.076172 717.880127,376.026062 
	C719.119934,377.091644 720.128418,377.503632 721.136963,377.915619 
	C721.136963,377.915619 721.050781,377.951813 721.088135,378.270996 
	C722.125000,379.035248 723.124451,379.480255 724.123962,379.925293 
	C724.123962,379.925293 724.036682,379.963226 724.037231,380.323364 
	C724.988342,383.118683 725.938904,385.553833 726.889526,387.989014 
	C726.961060,395.691498 727.032593,403.393951 726.772095,411.740967 
	C726.599731,413.251740 726.759460,414.117981 726.919189,414.984253 
	C726.981140,419.357422 727.043091,423.730591 726.794800,428.703796 
	C726.629700,429.864075 726.774780,430.424347 726.919922,430.984619 
	C726.978394,459.021118 727.036926,487.057617 726.846924,515.643372 
	C726.703857,516.456970 726.809326,516.721313 726.914856,516.985596 
	C726.978210,543.715698 727.047729,570.445740 727.101440,597.175842 
	C727.118103,605.478882 727.091858,613.782043 726.636353,622.621704 
	C724.671875,625.317322 723.690735,627.410828 726.902466,628.990295 
	C726.962036,631.042236 727.021667,633.094177 726.631897,635.652954 
	C726.154541,638.120972 726.126648,640.082214 726.098755,642.043396 
	C725.967896,642.633057 725.836975,643.222778 725.063721,643.960327 
	C723.981567,644.844788 723.541809,645.581360 723.102051,646.317993 
	C723.127869,646.646606 722.992676,646.883179 722.101929,647.032715 
	C720.696777,647.736267 719.886169,648.434875 719.075500,649.133545 
	C719.075500,649.133484 719.049377,649.044250 718.725891,649.044312 
	C717.604553,649.706482 716.806763,650.368591 716.008911,651.030762 
	C692.077637,665.693604 668.158691,680.376648 644.211060,695.012695 
	C625.715271,706.316833 607.183472,717.562134 588.111938,728.649780 
	C586.753662,729.226196 585.951233,729.986450 585.148743,730.746643 
M612.075867,693.084045 
	C612.075867,693.084045 612.118958,693.183655 612.783569,693.030762 
	C613.696838,692.397766 614.610107,691.764832 616.185059,691.045593 
	C628.426575,683.608521 640.649414,676.140503 652.914001,668.741760 
	C670.530518,658.114380 688.177612,647.537476 706.576904,636.968201 
	C707.359985,636.236328 708.143127,635.504456 708.890259,634.362610 
	C708.890259,634.362610 709.054443,633.985229 709.629395,633.385193 
	C709.751709,631.739807 709.980408,630.094421 709.980835,628.449036 
	C709.999268,561.555969 709.996765,494.662933 709.998291,427.769867 
	C709.998535,417.120239 710.052795,406.470337 709.989868,395.821106 
	C709.957092,390.273010 707.665955,387.972504 701.223755,387.102081 
	C700.497620,386.780304 699.771423,386.458527 698.426819,385.796783 
	C681.060547,375.588165 663.705383,365.360687 646.325928,355.174500 
	C599.317993,327.622864 552.246582,300.178589 505.352417,272.434753 
	C499.441925,268.937958 494.623260,268.291168 489.212433,272.780273 
	C487.101562,274.531586 484.411469,275.584778 481.704010,276.393921 
	C478.297974,274.404999 479.408051,277.246094 478.808777,279.007172 
	C478.637634,279.022583 478.466492,279.038025 478.114441,278.385406 
	C474.705566,279.824738 471.089478,280.911194 467.925903,282.768341 
	C457.671082,288.788513 447.547974,295.036957 437.476654,301.360687 
	C436.337769,302.075806 435.850708,303.828979 435.025909,305.013306 
	C435.025909,305.013306 435.103607,305.066925 434.286560,305.026978 
	C433.295776,305.054443 432.090820,304.722321 431.347382,305.165100 
	C424.146576,309.453522 417.009460,313.850098 409.919708,318.319824 
	C409.576294,318.536346 409.843781,319.721802 409.648346,320.708618 
	C409.648346,320.708618 409.356018,320.809448 408.660248,320.383820 
	C403.995087,322.603699 399.322144,324.807983 394.703674,327.121124 
	C394.569305,327.188416 395.011047,328.405945 394.703400,329.789215 
	C394.216583,330.074982 393.729767,330.360748 392.761597,330.814087 
	C390.292969,332.436584 387.824341,334.059113 384.771332,336.152435 
	C384.829285,337.424133 384.887238,338.695801 385.102325,340.803802 
	C385.027527,342.213654 384.952698,343.623474 384.468567,345.328278 
	C384.611908,345.878876 384.755219,346.429474 385.108032,347.473145 
	C385.163086,347.643005 385.218140,347.812866 385.078125,348.499390 
	C385.013824,348.671906 384.949554,348.844391 384.341522,349.640686 
	C384.230957,354.396759 383.965454,359.155701 384.053650,363.908081 
	C384.140778,368.601624 384.585480,373.288574 385.042114,378.729980 
	C384.985168,379.493958 384.928253,380.257904 384.333710,381.649200 
	C384.240387,398.188873 384.138275,414.728516 384.090729,431.268311 
	C384.089081,431.839905 384.633057,432.413025 385.272156,433.575195 
	C387.852295,435.406647 390.432434,437.238129 393.317078,439.504364 
	C393.641663,439.638977 393.966248,439.773590 394.983490,439.956635 
	C424.194244,456.985199 453.436462,473.960358 482.565887,491.126953 
	C485.404144,492.799591 487.546570,495.653015 490.035065,498.770538 
	C490.639862,500.509460 491.244629,502.248413 492.018066,504.655426 
	C491.981995,505.109131 491.945892,505.562805 491.353851,506.630737 
	C491.257904,506.948212 491.078186,507.265656 491.077881,507.583191 
	C491.045807,542.912354 491.008789,578.241638 491.089661,613.570557 
	C491.092285,614.719055 492.306335,615.864868 493.457245,616.964294 
	C493.622223,616.932739 493.787170,616.901123 494.029053,617.472839 
	C494.969238,617.506409 496.126221,617.914856 496.816132,617.515747 
	C503.937134,613.396790 511.029327,609.221619 517.993958,604.846252 
	C518.929749,604.258362 519.116333,602.477661 520.144531,600.975647 
	C520.332703,600.965942 520.520935,600.956299 520.876343,601.599854 
	C525.210266,599.530334 529.593018,597.552429 533.827332,595.295959 
	C534.489380,594.943115 534.475891,593.322632 535.194702,592.000244 
	C535.364014,591.987549 535.533325,591.974854 535.886719,592.621521 
	C539.120361,593.755676 539.926086,591.942261 540.368530,588.976807 
	C540.368530,588.976807 540.819336,588.927368 541.460693,589.192383 
	C545.326599,587.453308 549.315247,585.932861 552.996826,583.865601 
	C554.432007,583.059692 555.175781,581.022583 556.391296,579.337219 
	C556.391296,579.337219 556.630066,579.231018 557.323975,579.635620 
	C558.530701,578.725891 559.737488,577.816223 560.976868,576.990601 
	C560.976868,576.990601 560.903137,576.938538 561.721741,576.975464 
	C567.141052,576.725891 570.971863,574.160522 572.174072,569.991943 
	C572.348816,569.983032 572.523621,569.974182 572.921387,570.682495 
	C576.072754,571.280029 577.746887,569.956238 578.340515,566.294128 
	C578.340515,566.294128 578.623840,566.191223 579.361572,566.624878 
	C585.306335,566.734802 587.959167,564.269287 587.987427,558.514038 
	C588.019714,551.940063 587.995117,545.365845 587.995117,538.791687 
	C587.995178,522.645081 588.041504,506.498260 587.958191,490.352112 
	C587.940308,486.893646 586.600403,483.225311 587.395813,480.034088 
	C588.395386,476.023773 585.691772,471.161896 590.989502,467.796539 
	C592.270203,467.622925 593.550842,467.449280 594.817749,467.436554 
	C594.817749,467.436554 594.846436,467.595551 595.263245,468.270782 
	C597.500061,469.195587 599.736877,470.120392 601.385376,471.623657 
	C601.256104,473.602539 601.014587,475.581390 601.013916,477.560303 
	C600.994507,535.045105 600.999146,592.529846 601.002258,650.500000 
	C601.002258,650.500000 601.000000,650.985352 601.001831,651.925537 
	C601.001221,658.954407 601.000610,665.983337 601.003113,673.668701 
	C601.002075,674.106384 601.001038,674.544067 601.002197,675.922729 
	C601.001465,678.074951 600.908691,680.231812 601.018127,682.378418 
	C601.283386,687.580322 601.642761,692.777344 602.653870,697.990295 
	C603.113708,697.989807 603.573547,697.989319 604.650391,697.995239 
	C605.481445,697.431763 606.312561,696.868286 607.728516,696.167847 
	C608.166565,695.819946 608.604675,695.472107 609.664917,694.962769 
	C610.502075,694.350220 611.339172,693.737671 612.075867,693.084045 
M464.627441,524.062073 
	C463.766449,524.754883 462.905457,525.447632 461.873779,526.650757 
	C461.378296,526.805725 460.882812,526.960693 459.858917,527.221008 
	C459.580383,527.431091 459.301849,527.641235 458.594574,528.010498 
	C458.594574,528.010498 458.138245,528.041260 457.563141,528.322388 
	C457.299316,528.664673 457.035492,529.006958 456.482758,529.918823 
	C439.307556,540.239990 422.132355,550.561218 404.590424,560.460266 
	C404.062225,560.981567 403.534027,561.502808 402.732941,562.517090 
	C402.212585,562.696472 401.692261,562.875916 400.405884,563.026184 
	C398.967651,564.069214 397.529388,565.112244 396.064758,566.063416 
	C396.064758,566.063416 396.153961,566.097778 395.383820,566.049377 
	C393.947083,567.108337 392.510345,568.167297 391.044067,569.608643 
	C391.044067,569.608643 390.959442,569.982727 390.553680,570.009949 
	C390.553680,570.009949 390.148804,570.048279 389.332397,570.169800 
	C388.894043,571.643066 388.074524,573.115906 388.072540,574.589722 
	C388.005829,624.140747 387.997375,673.691833 388.106445,723.242676 
	C388.109894,724.813965 389.438202,726.382385 390.610992,728.049438 
	C390.916901,728.223938 391.063629,728.487183 391.108185,729.569946 
	C392.780823,730.354187 394.453461,731.138489 396.041962,731.963379 
	C396.041962,731.963379 396.070984,731.874634 396.122040,732.604187 
	C397.804504,733.365417 399.486969,734.126648 401.077362,734.921082 
	C401.077362,734.921082 401.104584,734.827148 401.124664,735.552856 
	C403.475708,736.682617 405.826752,737.812378 408.754272,738.966125 
	C409.177216,739.284119 409.600159,739.602173 410.121521,740.660828 
	C411.174408,741.076782 412.227295,741.492737 413.837952,741.912781 
	C414.236908,742.236755 414.635864,742.560730 415.107147,743.612793 
	C416.793915,744.371887 418.480682,745.131042 420.076202,745.922974 
	C420.076202,745.922974 420.102264,745.829529 420.132538,746.571289 
	C421.834259,747.354797 423.535980,748.138367 425.803345,748.939087 
	C426.210541,749.265503 426.617767,749.591858 427.107391,750.643433 
	C428.797943,751.409363 430.488495,752.175232 432.736633,752.999146 
	C433.158875,753.328857 433.581085,753.658569 434.118378,754.709290 
	C435.153564,755.115112 436.188751,755.520874 437.791382,755.945129 
	C438.201721,756.272217 438.612061,756.599243 439.126740,757.670837 
	C440.191162,758.080017 441.255585,758.489197 443.015808,758.934082 
	C448.007324,761.945374 452.998840,764.956665 458.317139,768.450378 
	C458.674011,768.595032 459.030914,768.739685 459.929535,768.863953 
	C460.303528,769.188477 460.677521,769.513000 461.113525,770.579895 
	C462.828461,771.358276 464.543427,772.136658 466.870911,772.944153 
	C467.589508,773.270752 468.308105,773.597412 469.467682,774.398621 
	C470.640167,774.920532 471.812653,775.442444 473.395508,776.463013 
	C474.269897,773.967773 475.144287,771.472473 476.603729,768.389404 
	C476.735413,767.078491 476.982056,765.767578 476.982361,764.456665 
	C476.999817,684.870422 477.002655,605.284180 476.954926,525.697937 
	C476.954010,524.134827 476.336945,522.572144 475.719421,520.381409 
	C474.992249,519.642700 474.265106,518.903992 473.537933,518.165283 
	C473.038757,518.819214 472.539581,519.473206 471.999756,520.501160 
	C471.999756,520.501160 471.949524,520.873962 471.406067,520.998291 
	C471.037781,521.031006 470.669495,521.063660 469.538879,521.042542 
	C468.701904,521.726440 467.864929,522.410339 466.973511,523.465454 
	C466.973511,523.465454 466.943695,523.839478 466.439972,523.984741 
	C466.097473,524.029663 465.754944,524.074646 464.627441,524.062073 
M506.732452,629.468567 
	C506.153503,630.005310 505.574585,630.542114 504.643585,631.666870 
	C502.387665,633.024719 500.237457,634.618469 497.851990,635.687073 
	C493.930847,637.443542 492.759338,640.012817 492.780090,644.446655 
	C492.963226,683.537964 492.812561,722.630859 492.760895,761.723267 
	C492.759308,762.932251 492.760681,764.141235 492.760681,765.923706 
	C501.560883,760.567627 509.686829,755.579041 517.854614,750.660034 
	C533.799377,741.057190 549.767517,731.493103 566.491150,721.962830 
	C567.312317,721.261047 568.133484,720.559265 569.131470,719.344910 
	C569.633301,719.193604 570.135132,719.042297 571.410339,718.946228 
	C572.262085,718.260498 573.113831,717.574707 574.159119,716.381592 
	C574.659912,716.219238 575.160767,716.056885 576.431763,715.950012 
	C577.276489,715.263611 578.121155,714.577209 579.145813,713.382141 
	C579.639648,713.217346 580.133545,713.052490 581.409546,712.946167 
	C582.256714,712.246521 583.103821,711.546875 584.058105,710.388611 
	C584.238525,710.090576 584.502869,709.945190 585.668945,709.830627 
	C586.109619,708.193787 586.932068,706.557739 586.935059,704.920044 
	C587.006897,666.185059 587.001404,627.450012 586.950256,588.714966 
	C586.948181,587.146912 586.361389,585.579651 585.728516,583.452087 
	C584.228149,583.992188 582.727783,584.532349 580.729431,585.223572 
	C580.489746,585.461731 580.250061,585.699890 579.527466,586.359802 
	C578.415283,586.927063 577.303162,587.494263 575.445618,588.031128 
	C574.627014,588.710754 573.808350,589.390381 572.702393,590.632690 
	C571.985657,591.018188 571.268860,591.403625 569.841431,591.321533 
	C568.933716,592.128967 568.026001,592.936462 566.752930,594.018677 
	C566.752930,594.018677 566.296692,594.048645 566.129089,593.402649 
	C564.753906,594.539490 563.378723,595.676331 561.655457,597.055237 
	C561.655457,597.055237 561.232666,597.087097 560.398560,597.033264 
	C558.393311,597.505127 554.949585,596.090149 555.710266,600.767517 
	C555.710266,600.767517 555.352112,600.869812 554.611145,600.414673 
	C553.817627,601.184509 553.024170,601.954407 551.805359,603.003113 
	C551.636169,603.013550 551.466980,603.023926 551.090271,602.348755 
	C547.944580,601.404541 547.006714,602.872009 546.864929,606.023804 
	C546.675781,606.034668 546.486694,606.045532 546.112366,605.386108 
	C543.418213,604.910217 542.030945,605.876709 541.877686,609.056519 
	C541.683777,609.077454 541.489929,609.098450 541.109375,608.417480 
	C537.912781,607.367920 537.005127,608.841553 536.889526,612.060242 
	C536.690125,612.082703 536.490784,612.105103 536.141357,611.462830 
	C535.757507,611.255554 535.216980,610.767578 535.012573,610.881714 
	C527.690002,614.969543 520.361267,619.050720 513.164551,623.352295 
	C512.486938,623.757263 512.667542,625.598206 511.454132,627.134949 
	C511.126038,627.004211 510.797913,626.873474 510.752472,626.315063 
	C510.551086,626.455322 510.349701,626.595581 510.806305,627.101868 
	C510.731750,627.341492 510.657166,627.581177 509.839996,627.333740 
	C509.189270,628.040710 508.538544,628.747681 507.686218,629.763977 
	C507.686218,629.763977 507.329742,629.860046 506.732452,629.468567 
M294.868469,524.466980 
	C292.972595,523.042114 291.238098,521.266541 289.132416,520.297546 
	C287.275543,519.443054 285.004303,519.489014 282.335938,519.704773 
	C282.243042,520.022644 282.068970,520.340454 282.068787,520.658386 
	C282.040039,567.608154 282.010590,614.557922 282.084717,661.507568 
	C282.086548,662.667297 283.242096,663.825256 284.143921,665.670471 
	C286.296021,667.101868 288.385925,668.638855 290.609772,669.948425 
	C316.730255,685.330322 342.870819,700.678223 369.258240,716.477295 
	C369.554169,716.636475 369.850098,716.795654 370.593445,716.982910 
	C370.593445,716.982910 371.013336,717.139832 371.057251,717.636169 
	C371.268158,717.833069 371.479065,718.030029 371.689972,718.226929 
	C371.771667,717.751038 371.853363,717.275208 371.894470,716.387512 
	C371.894470,716.387512 372.024902,715.994751 372.611267,715.401733 
	C372.738678,714.755432 372.977356,714.109131 372.977600,713.462769 
	C372.995575,667.299805 373.005096,621.136780 372.943359,574.973877 
	C372.941559,573.619507 372.172150,572.266113 371.743652,570.846619 
	C371.743652,570.846619 371.704010,570.791626 371.833862,570.005554 
	C369.914307,565.142700 367.117157,563.470154 363.165924,565.086304 
	C363.023560,564.992981 362.881165,564.899597 362.759705,564.024414 
	C359.995880,560.307495 356.697876,557.593628 351.290131,558.122253 
	C351.290131,558.122253 350.998199,557.873108 350.985901,557.136475 
	C350.134491,553.572144 347.856995,552.877014 344.163300,553.992249 
	C344.016632,553.904541 343.869995,553.816895 343.852386,552.910522 
	C341.659851,548.098999 337.202576,547.606262 332.341949,547.074280 
	C332.341949,547.074280 331.997955,546.842041 331.978455,546.125183 
	C328.594147,543.671875 325.214172,541.212341 321.783997,538.824890 
	C321.732361,538.788940 321.058350,539.647217 320.083008,540.050293 
	C319.909088,539.956421 319.735199,539.862488 319.792419,538.981750 
	C318.099945,535.208801 316.571014,534.460327 313.177551,535.981323 
	C313.177551,535.981323 312.757599,535.714844 312.868134,534.913147 
	C311.498840,533.440247 310.352722,531.610352 308.706146,530.581055 
	C306.433380,529.160461 303.810730,528.272705 301.285919,527.290466 
	C299.173523,526.468628 296.986389,525.838867 294.935883,525.065918 
	C294.935883,525.065918 294.884949,525.173157 294.868469,524.466980 
M444.799957,490.687073 
	C422.963867,477.920898 401.100830,465.200287 379.325745,452.330780 
	C376.597839,450.718506 374.636719,451.066284 372.086487,452.630157 
	C352.780579,464.469177 333.384308,476.160736 314.026062,487.914520 
	C306.634216,492.402649 299.268066,496.933167 291.418304,501.732941 
	C293.045715,502.803284 293.960846,503.471375 294.935577,504.036713 
	C321.380493,519.373718 347.899933,534.584473 374.216797,550.138062 
	C378.811798,552.853760 382.162872,553.038147 386.773102,550.147156 
	C405.691101,538.284119 424.877991,526.850220 443.954010,515.238831 
	C450.702637,511.130951 457.417358,506.967346 464.879333,502.379211 
	C457.942505,498.315796 451.703033,494.660889 444.799957,490.687073 
z"/>
<path fill="#EFEFED" opacity="1.000000" stroke="none" 
	d="
M270.616211,492.958069 
	C269.720490,495.028107 268.502167,497.221985 267.154449,500.098389 
	C267.028198,501.503632 267.031342,502.226379 267.034424,502.949158 
	C267.028625,503.725769 267.022827,504.502380 267.019897,506.129364 
	C267.025909,560.635498 267.029022,614.291199 267.032166,667.946960 
	C267.538086,673.597473 270.835052,676.980591 275.713440,679.492004 
	C277.751892,680.541382 279.184357,682.767883 280.883850,684.819336 
	C277.249023,682.878601 273.273529,680.966431 270.122345,678.136475 
	C268.111450,676.330566 266.813843,673.296692 266.112457,670.577087 
	C265.252228,667.241638 265.075928,663.659912 265.071625,660.184082 
	C265.008209,608.709839 265.047913,557.235474 264.978607,505.761322 
	C264.971771,500.676514 265.802277,496.171356 270.616211,492.958069 
z"/>
<path fill="#EFEFED" opacity="1.000000" stroke="none" 
	d="
M449.840790,784.314819 
	C451.296051,784.121216 453.187469,783.672913 454.430939,784.373962 
	C458.700653,786.781189 462.674561,789.706543 466.890137,792.217957 
	C472.045868,795.289490 477.367615,793.050476 483.012177,792.527954 
	C477.131195,797.366333 470.845490,797.164185 464.346710,793.039795 
	C459.658051,790.064148 454.775818,787.393555 449.840790,784.314819 
z"/>
<path fill="#EFEFED" opacity="1.000000" stroke="none" 
	d="
M483.983154,792.296387 
	C483.910919,791.450684 483.786530,789.897217 484.395966,789.515686 
	C492.337311,784.542847 500.374451,779.722229 508.429108,774.933289 
	C508.782104,774.723450 509.534760,775.185730 510.200562,775.663330 
	C501.623932,781.372253 492.948029,786.752808 483.983154,792.296387 
z"/>
<path fill="#EFEFED" opacity="1.000000" stroke="none" 
	d="
M396.940613,753.397461 
	C399.766266,754.276611 402.874390,755.244812 405.729675,756.706787 
	C411.066162,759.439392 416.295624,762.390564 421.473053,765.416016 
	C422.510132,766.022095 423.116547,767.365234 423.944611,768.730774 
	C415.014801,763.965149 406.061890,758.837280 396.940613,753.397461 
z"/>
<path fill="#EFEFED" opacity="1.000000" stroke="none" 
	d="
M511.535339,775.539673 
	C511.303955,774.894714 511.136719,773.599854 511.552979,773.372253 
	C517.209106,770.279724 522.946106,767.335144 529.018921,764.556030 
	C523.540039,768.300659 517.705444,771.843262 511.535339,775.539673 
z"/>
<path fill="#EFEFED" opacity="1.000000" stroke="none" 
	d="
M285.955994,688.390320 
	C293.215790,688.022034 297.783051,693.265320 302.966980,697.732910 
	C297.348083,694.975464 291.735962,691.838440 285.955994,688.390320 
z"/>
<path fill="#EFEFED" opacity="1.000000" stroke="none" 
	d="
M332.900024,715.887329 
	C337.481995,716.421875 342.535706,716.741028 344.991425,722.469360 
	C341.057281,720.572266 337.116943,718.311279 332.900024,715.887329 
z"/>
<path fill="#EFEFED" opacity="1.000000" stroke="none" 
	d="
M304.957275,699.390381 
	C308.459808,698.493958 314.015320,701.430298 315.369873,705.112427 
	C311.826508,703.529358 308.475555,701.612549 304.957275,699.390381 
z"/>
<path fill="#EFEFED" opacity="1.000000" stroke="none" 
	d="
M548.072998,753.276855 
	C548.828003,749.038879 551.670715,747.109619 556.204468,747.695068 
	C553.650146,749.722107 551.000549,751.416565 548.072998,753.276855 
z"/>
<path fill="#EFEFED" opacity="1.000000" stroke="none" 
	d="
M530.039307,764.282227 
	C530.407715,763.046936 530.689453,761.045776 531.782837,760.382385 
	C533.622864,759.266113 535.978333,758.999634 538.206543,758.703247 
	C535.636536,760.726501 532.977051,762.422180 530.039307,764.282227 
z"/>
<path fill="#EFEFED" opacity="1.000000" stroke="none" 
	d="
M386.281982,747.161194 
	C390.681885,746.057312 393.452393,748.831421 395.986023,752.441650 
	C392.846161,750.992493 389.694611,749.187927 386.281982,747.161194 
z"/>
<path fill="#EFEFED" opacity="1.000000" stroke="none" 
	d="
M576.392090,736.015930 
	C577.294800,732.147766 580.007263,730.274414 584.203979,730.686890 
	C581.776184,732.659363 579.254761,734.302185 576.392090,736.015930 
z"/>
<path fill="#FCFCFC" opacity="1.000000" stroke="none" 
	d="
M370.585815,322.890869 
	C369.903717,326.427429 368.892365,330.119415 367.514282,333.900024 
	C366.721405,329.925629 366.901978,326.035034 370.585815,322.890869 
z"/>
<path fill="#EFEFED" opacity="1.000000" stroke="none" 
	d="
M562.974609,744.294861 
	C562.459351,738.723572 567.529053,740.480591 570.735229,739.066284 
	C568.506653,740.768555 565.884277,742.450073 562.974609,744.294861 
z"/>
<path fill="#EFEFED" opacity="1.000000" stroke="none" 
	d="
M431.911621,773.918823 
	C434.290344,773.936462 437.686951,772.380859 438.306396,777.089355 
	C436.124817,776.307495 434.154633,775.186768 431.911621,773.918823 
z"/>
<path fill="#FCFCFC" opacity="1.000000" stroke="none" 
	d="
M726.946960,387.598633 
	C725.938904,385.553833 724.988342,383.118683 724.056030,380.279663 
	C725.051025,382.319946 726.027710,384.764099 726.946960,387.598633 
z"/>
<path fill="#EFEFED" opacity="1.000000" stroke="none" 
	d="
M425.964905,770.371582 
	C428.768341,768.777588 430.981903,769.069336 431.402222,773.124329 
	C429.521973,772.525879 427.822601,771.595520 425.964905,770.371582 
z"/>
<path fill="#EFEFED" opacity="1.000000" stroke="none" 
	d="
M335.584106,452.961090 
	C333.649567,454.476471 331.373352,456.073120 328.763550,457.434631 
	C330.700806,455.813812 332.971649,454.428101 335.584106,452.961090 
z"/>
<path fill="#EFEFED" opacity="1.000000" stroke="none" 
	d="
M321.976044,709.361389 
	C323.967407,709.465271 327.175690,707.562927 327.405060,712.092529 
	C325.526184,711.525391 323.828705,710.591125 321.976044,709.361389 
z"/>
<path fill="#FCFCFC" opacity="1.000000" stroke="none" 
	d="
M365.594482,434.895752 
	C363.834595,436.186676 361.734192,437.572479 359.247192,438.957825 
	C360.991730,437.635132 363.122894,436.312927 365.594482,434.895752 
z"/>
<path fill="#EFEFED" opacity="1.000000" stroke="none" 
	d="
M315.905151,705.950439 
	C318.235779,704.573547 320.362518,704.474182 320.986877,708.408997 
	C319.389069,707.895630 317.780426,706.994812 315.905151,705.950439 
z"/>
<path fill="#FCFCFC" opacity="1.000000" stroke="none" 
	d="
M726.974304,628.567505 
	C723.690735,627.410828 724.671875,625.317322 726.545227,623.083130 
	C726.950684,624.720154 726.998413,626.432434 726.974304,628.567505 
z"/>
<path fill="#FCFCFC" opacity="1.000000" stroke="none" 
	d="
M726.420593,641.810791 
	C726.126648,640.082214 726.154541,638.120972 726.542175,636.084778 
	C726.848694,637.865906 726.795593,639.722046 726.420593,641.810791 
z"/>
<path fill="#EFEFED" opacity="1.000000" stroke="none" 
	d="
M327.885010,712.936646 
	C329.287109,713.439880 330.941315,714.101379 332.440613,715.120361 
	C330.902832,714.683533 329.519958,713.889282 327.885010,712.936646 
z"/>
<path fill="#EFEFED" opacity="1.000000" stroke="none" 
	d="
M443.053009,780.390015 
	C444.857910,781.043884 446.839600,782.004272 448.875763,783.361450 
	C447.030060,782.737793 445.129944,781.717163 443.053009,780.390015 
z"/>
<path fill="#EFEFED" opacity="1.000000" stroke="none" 
	d="
M557.545898,747.578186 
	C558.702820,746.596924 560.172607,745.475525 562.018311,744.523193 
	C560.882324,745.607483 559.370483,746.522705 557.545898,747.578186 
z"/>
<path fill="#EFEFED" opacity="1.000000" stroke="none" 
	d="
M543.381592,756.049805 
	C544.275269,755.204346 545.475586,754.288940 547.022217,753.581055 
	C546.141785,754.518982 544.915039,755.249390 543.381592,756.049805 
z"/>
<path fill="#EFEFED" opacity="1.000000" stroke="none" 
	d="
M312.575989,466.930664 
	C311.482849,467.888397 310.060516,468.923218 308.257996,469.938171 
	C309.334137,468.948120 310.790466,467.977936 312.575989,466.930664 
z"/>
<path fill="#FCFCFC" opacity="1.000000" stroke="none" 
	d="
M394.621521,307.987854 
	C393.516846,308.925018 392.084045,309.944885 390.274109,310.953125 
	C391.362427,309.984558 392.827911,309.027557 394.621521,307.987854 
z"/>
<path fill="#EFEFED" opacity="1.000000" stroke="none" 
	d="
M294.587463,477.940430 
	C293.492950,478.899170 292.067505,479.928497 290.262756,480.940735 
	C291.341156,479.952759 292.798859,478.981903 294.587463,477.940430 
z"/>
<path fill="#EFEFED" opacity="1.000000" stroke="none" 
	d="
M289.600861,480.959167 
	C288.500244,481.910583 287.069244,482.934998 285.259521,483.940155 
	C286.343994,482.958008 287.807220,481.995056 289.600861,480.959167 
z"/>
<path fill="#FCFCFC" opacity="1.000000" stroke="none" 
	d="
M381.570618,315.918396 
	C380.447266,316.879242 378.991547,317.922272 377.148071,318.944763 
	C378.252930,317.949677 379.745605,316.975128 381.570618,315.918396 
z"/>
<path fill="#EFEFED" opacity="1.000000" stroke="none" 
	d="
M571.407837,739.047607 
	C572.499878,738.098083 573.918274,737.067200 575.714478,736.046936 
	C574.639709,737.027161 573.186951,737.996704 571.407837,739.047607 
z"/>
<path fill="#FCFCFC" opacity="1.000000" stroke="none" 
	d="
M399.630005,304.955383 
	C398.524902,305.898987 397.091492,306.929352 395.279510,307.952087 
	C396.367828,306.976990 397.834747,306.009583 399.630005,304.955383 
z"/>
<path fill="#EFEFED" opacity="1.000000" stroke="none" 
	d="
M280.968628,685.419434 
	C282.206421,685.773682 283.587280,686.416992 284.982941,687.439087 
	C283.702393,687.114807 282.407074,686.411682 280.968628,685.419434 
z"/>
<path fill="#EFEFED" opacity="1.000000" stroke="none" 
	d="
M325.654480,458.995575 
	C324.900574,459.854156 323.904999,460.747437 322.806091,461.297028 
	C323.606079,460.312347 324.509430,459.671326 325.654480,458.995575 
z"/>
<path fill="#EFEFED" opacity="1.000000" stroke="none" 
	d="
M438.950073,778.014038 
	C440.081543,778.377197 441.474976,778.880676 442.896820,779.753418 
	C441.687500,779.466614 440.449768,778.810486 438.950073,778.014038 
z"/>
<path fill="#EFEFED" opacity="1.000000" stroke="none" 
	d="
M539.500244,758.561035 
	C540.213135,757.809570 541.245483,756.922546 542.699585,756.058105 
	C542.020874,756.862305 540.920288,757.643921 539.500244,758.561035 
z"/>
<path fill="#EFEFED" opacity="1.000000" stroke="none" 
	d="
M345.901855,723.361511 
	C347.152924,723.730347 348.534058,724.374695 350.020386,725.422180 
	C348.760986,725.095886 347.396454,724.366516 345.901855,723.361511 
z"/>
<path fill="#EFEFED" opacity="1.000000" stroke="none" 
	d="
M321.539734,461.363800 
	C320.782501,462.147552 319.686798,463.053864 318.187012,463.939911 
	C318.922363,463.108551 320.061798,462.297455 321.539734,461.363800 
z"/>
<path fill="#FCFCFC" opacity="1.000000" stroke="none" 
	d="
M367.078003,378.443909 
	C367.308014,379.833557 367.473694,381.644318 367.389709,383.711243 
	C367.097870,382.266602 367.055756,380.565796 367.078003,378.443909 
z"/>
<path fill="#FCFCFC" opacity="1.000000" stroke="none" 
	d="
M720.992310,377.629883 
	C720.128418,377.503632 719.119934,377.091644 718.053467,376.324890 
	C718.946289,376.428131 719.896973,376.886139 720.992310,377.629883 
z"/>
<path fill="#EFEFED" opacity="1.000000" stroke="none" 
	d="
M315.676208,465.026550 
	C315.191132,465.636902 314.388397,466.292755 313.219971,466.923340 
	C313.689056,466.289337 314.523804,465.680664 315.676208,465.026550 
z"/>
<path fill="#EFEFED" opacity="1.000000" stroke="none" 
	d="
M307.606262,469.952576 
	C307.108490,470.568024 306.292145,471.257538 305.093414,471.920898 
	C305.569916,471.272003 306.428802,470.649323 307.606262,469.952576 
z"/>
<path fill="#FCFCFC" opacity="1.000000" stroke="none" 
	d="
M723.993042,379.635010 
	C723.124451,379.480255 722.125000,379.035248 721.101562,378.226257 
	C722.005859,378.356445 722.934021,378.850616 723.993042,379.635010 
z"/>
<path fill="#EFEFED" opacity="1.000000" stroke="none" 
	d="
M302.646667,472.968567 
	C302.155365,473.580414 301.348297,474.269012 300.164978,474.940216 
	C300.636108,474.296997 301.483490,473.671173 302.646667,472.968567 
z"/>
<path fill="#FCFCFC" opacity="1.000000" stroke="none" 
	d="
M374.665955,320.003662 
	C374.185364,320.602570 373.394653,321.283386 372.235321,321.961151 
	C372.696442,321.333954 373.526154,320.709747 374.665955,320.003662 
z"/>
<path fill="#EFEFED" opacity="1.000000" stroke="none" 
	d="
M585.469788,730.635010 
	C585.951233,729.986450 586.753662,729.226196 587.768677,728.709351 
	C587.251099,729.476257 586.520996,729.999756 585.469788,730.635010 
z"/>
<path fill="#EFEFED" opacity="1.000000" stroke="none" 
	d="
M276.563538,488.906128 
	C276.080750,489.530823 275.283234,490.238525 274.100891,490.920746 
	C274.560303,490.259888 275.404572,489.624512 276.563538,488.906128 
z"/>
<path fill="#EFEFED" opacity="1.000000" stroke="none" 
	d="
M279.649170,486.961029 
	C279.166321,487.575073 278.369568,488.256683 277.200378,488.905396 
	C277.663727,488.257843 278.499481,487.643188 279.649170,486.961029 
z"/>
<path fill="#EFEFED" opacity="1.000000" stroke="none" 
	d="
M284.611816,483.957428 
	C284.128540,484.573273 283.330383,485.265411 282.154907,485.937836 
	C282.617340,485.290009 283.457153,484.661865 284.611816,483.957428 
z"/>
<path fill="#EFEFED" opacity="1.000000" stroke="none" 
	d="
M297.666840,476.000366 
	C297.188782,476.614441 296.396088,477.284058 295.236664,477.932800 
	C295.697357,477.293243 296.524811,476.674561 297.666840,476.000366 
z"/>
<path fill="#FCFCFC" opacity="1.000000" stroke="none" 
	d="
M719.392944,649.054504 
	C719.886169,648.434875 720.696777,647.736267 721.888062,647.062317 
	C721.415955,647.716492 720.563171,648.345947 719.392944,649.054504 
z"/>
<path fill="#FCFCFC" opacity="1.000000" stroke="none" 
	d="
M389.630920,310.980530 
	C389.130524,311.585876 388.314697,312.272278 387.120392,312.938660 
	C387.599762,312.299591 388.457642,311.680603 389.630920,310.980530 
z"/>
<path fill="#FCFCFC" opacity="1.000000" stroke="none" 
	d="
M384.668732,314.003784 
	C384.179901,314.605865 383.378418,315.276184 382.207001,315.921265 
	C382.676727,315.288055 383.516418,314.680084 384.668732,314.003784 
z"/>
<path fill="#FCFCFC" opacity="1.000000" stroke="none" 
	d="
M356.691833,440.058777 
	C356.219482,440.663940 355.433563,441.309265 354.290039,441.959686 
	C354.747681,441.342834 355.562988,440.720856 356.691833,440.058777 
z"/>
<path fill="#FCFCFC" opacity="1.000000" stroke="none" 
	d="
M353.653259,442.005280 
	C353.165009,442.615814 352.360168,443.292206 351.183838,443.954041 
	C351.653809,443.316711 352.495239,442.693909 353.653259,442.005280 
z"/>
<path fill="#FCFCFC" opacity="1.000000" stroke="none" 
	d="
M348.664429,445.007050 
	C348.169128,445.620483 347.354279,446.295197 346.166382,446.951935 
	C346.643860,446.312073 347.494324,445.690216 348.664429,445.007050 
z"/>
<path fill="#FCFCFC" opacity="1.000000" stroke="none" 
	d="
M343.674469,448.028992 
	C343.188599,448.633331 342.386597,449.302948 341.216980,449.962799 
	C341.685699,449.333435 342.522003,448.713867 343.674469,448.028992 
z"/>
<path fill="#FCFCFC" opacity="1.000000" stroke="none" 
	d="
M716.323120,650.972473 
	C716.806763,650.368591 717.604553,649.706482 718.768433,649.062988 
	C718.302124,649.692566 717.469788,650.303406 716.323120,650.972473 
z"/>
<path fill="#EFEFED" opacity="1.000000" stroke="none" 
	d="
M338.684937,451.049896 
	C338.201782,451.655090 337.402557,452.305725 336.240784,452.937469 
	C336.708466,452.310822 337.538666,451.703094 338.684937,451.049896 
z"/>
<path fill="#FCFCFC" opacity="1.000000" stroke="none" 
	d="
M367.071716,396.413635 
	C367.294891,397.193481 367.452728,398.364807 367.372498,399.752380 
	C367.091736,398.914154 367.049072,397.859589 367.071716,396.413635 
z"/>
<path fill="#FCFCFC" opacity="1.000000" stroke="none" 
	d="
M367.058441,428.413208 
	C367.284912,429.194305 367.444794,430.367004 367.364197,431.754822 
	C367.079773,430.914886 367.035797,429.859833 367.058441,428.413208 
z"/>
<path fill="#FCFCFC" opacity="1.000000" stroke="none" 
	d="
M723.391235,646.186279 
	C723.541809,645.581360 723.981567,644.844788 724.779297,644.075867 
	C724.651672,644.713928 724.166077,645.384277 723.391235,646.186279 
z"/>
<path fill="#FCFCFC" opacity="1.000000" stroke="none" 
	d="
M367.074280,356.387756 
	C367.290405,356.879669 367.441681,357.736908 367.365997,358.781067 
	C367.095825,358.229706 367.052643,357.491425 367.074280,356.387756 
z"/>
<path fill="#FCFCFC" opacity="1.000000" stroke="none" 
	d="
M726.991089,414.617188 
	C726.759460,414.117981 726.599731,413.251740 726.679565,412.202850 
	C726.967041,412.763519 727.015015,413.506836 726.991089,414.617188 
z"/>
<path fill="#FCFCFC" opacity="1.000000" stroke="none" 
	d="
M367.071533,390.344116 
	C367.273956,390.574768 367.411621,391.127960 367.342133,391.825562 
	C367.092224,391.535522 367.049530,391.101074 367.071533,390.344116 
z"/>
<path fill="#FCFCFC" opacity="1.000000" stroke="none" 
	d="
M726.992920,430.659912 
	C726.774780,430.424347 726.629700,429.864075 726.702454,429.161926 
	C726.968872,429.458405 727.017395,429.896790 726.992920,430.659912 
z"/>
<path fill="#EFEFED" opacity="1.000000" stroke="none" 
	d="
M328.216827,458.226685 
	C328.402557,458.646606 328.196960,459.119263 327.570374,459.604187 
	C327.374786,459.170776 327.600128,458.725128 328.216827,458.226685 
z"/>
<path fill="#FCFCFC" opacity="1.000000" stroke="none" 
	d="
M726.980530,516.743713 
	C726.809326,516.721313 726.703857,516.456970 726.756104,516.105469 
	C726.958008,516.179504 727.002136,516.340698 726.980530,516.743713 
z"/>
<path fill="#EFEFED" opacity="1.000000" stroke="none" 
	d="
M351.762024,725.712585 
	C351.630981,725.466553 351.556763,725.208923 351.482544,724.951355 
	C351.570496,725.042786 351.658447,725.134216 351.840637,725.463867 
	C351.934875,725.702087 351.818848,725.701050 351.762024,725.712585 
z"/>
<path fill="#090909" opacity="1.000000" stroke="none" 
	d="
M481.985199,276.955902 
	C484.411469,275.584778 487.101562,274.531586 489.212433,272.780273 
	C494.623260,268.291168 499.441925,268.937958 505.352417,272.434753 
	C552.246582,300.178589 599.317993,327.622864 646.325928,355.174500 
	C663.705383,365.360687 681.060547,375.588165 698.567993,386.254272 
	C692.196655,391.084290 685.816589,395.672699 679.136353,399.771912 
	C671.687256,404.342865 663.874634,408.318970 656.388611,412.833130 
	C649.459778,417.011292 642.801514,421.635742 635.931580,425.915131 
	C631.412903,428.729950 626.660767,431.169891 622.139709,433.981110 
	C617.314636,436.981354 612.722229,440.358459 607.871948,443.314758 
	C603.536926,445.957062 598.989075,448.250366 594.229858,450.445251 
	C563.105347,431.851349 532.279724,413.520782 501.468750,395.165619 
	C465.386810,373.670441 429.317657,352.153839 393.242950,330.646545 
	C393.729767,330.360748 394.216583,330.074982 395.288391,329.379700 
	C400.367584,326.249939 404.861816,323.529694 409.356018,320.809448 
	C409.356018,320.809448 409.648346,320.708618 410.014526,320.416748 
	C418.621674,315.105530 426.862640,310.086212 435.103607,305.066925 
	C435.103607,305.066925 435.025909,305.013306 435.389587,304.975281 
	C449.933960,296.309357 464.114655,287.681396 478.295349,279.053436 
	C478.466492,279.038025 478.637634,279.022583 479.321655,278.727295 
	C480.551453,277.950226 481.268311,277.453064 481.985199,276.955902 
z"/>
<path fill="#090909" opacity="1.000000" stroke="none" 
	d="
M705.811584,636.938904 
	C688.177612,647.537476 670.530518,658.114380 652.914001,668.741760 
	C640.649414,676.140503 628.426575,683.608521 615.449402,691.063477 
	C613.848816,691.782104 612.983887,692.482910 612.118958,693.183655 
	C612.118958,693.183655 612.075867,693.084045 611.752380,693.074646 
	C610.633484,693.751587 609.838135,694.437927 609.042725,695.124268 
	C608.604675,695.472107 608.166565,695.819946 607.263550,695.831604 
	C606.532166,693.712463 606.050171,691.931274 606.035400,690.146301 
	C605.958252,680.828308 606.000000,671.509277 605.999939,662.190613 
	C605.999329,600.288147 606.014648,538.385742 605.919678,476.483398 
	C605.916870,474.656555 604.753052,472.831512 604.041992,470.614136 
	C603.936646,469.149963 603.919861,468.077240 604.097412,466.723145 
	C611.748596,461.628021 619.130554,456.692566 626.688171,452.042664 
	C631.860107,448.860535 637.391968,446.262665 642.558777,443.072754 
	C651.477173,437.566589 660.176758,431.706512 669.079407,426.173920 
	C678.562988,420.280304 688.080383,414.426880 697.784302,408.909851 
	C701.117065,407.015076 705.056580,406.187469 708.726929,405.359070 
	C708.693604,466.591888 708.621216,527.338013 708.632629,588.084106 
	C708.635498,603.384460 708.906616,618.684875 709.054443,633.985229 
	C709.054443,633.985229 708.890259,634.362610 708.605469,634.686035 
	C707.484314,635.652649 706.647949,636.295776 705.811584,636.938904 
z"/>
<path fill="#090909" opacity="1.000000" stroke="none" 
	d="
M540.819336,588.927368 
	C540.819336,588.927368 540.368530,588.976807 539.888428,589.156128 
	C538.173096,590.210999 536.937866,591.086548 535.702576,591.962158 
	C535.533325,591.974854 535.364014,591.987549 534.648438,592.293457 
	C529.637817,595.373352 525.173462,598.159973 520.709167,600.946594 
	C520.520935,600.956299 520.332703,600.965942 519.586548,601.292603 
	C510.669769,606.696167 502.310944,611.782898 493.952087,616.869568 
	C493.787170,616.901123 493.622223,616.932739 493.089600,616.531067 
	C492.769440,588.692444 492.899902,561.286743 492.818451,533.881714 
	C492.790833,524.592468 492.228058,515.304871 491.909821,506.016510 
	C491.945892,505.562805 491.981995,505.109131 491.996277,503.951172 
	C491.320312,501.484039 490.666168,499.721191 490.012024,497.958344 
	C487.546570,495.653015 485.404144,492.799591 482.565887,491.126953 
	C453.436462,473.960358 424.194244,456.985199 394.509888,439.681458 
	C393.695038,439.294067 393.353821,439.181824 393.012573,439.069580 
	C390.432434,437.238129 387.852295,435.406647 385.145416,432.814667 
	C384.969574,415.043396 384.920441,398.032623 384.871338,381.021881 
	C384.928253,380.257904 384.985168,379.493958 385.025696,377.891174 
	C384.967957,367.707184 384.926636,358.362030 384.885315,349.016876 
	C384.949554,348.844391 385.013824,348.671906 385.501038,348.320831 
	C387.051910,348.826233 388.173981,349.520050 389.308624,350.192688 
	C452.719086,387.783936 516.135742,425.364807 579.517822,463.003876 
	C581.452820,464.152985 583.029236,465.905914 584.774475,467.482910 
	C584.776123,467.588531 584.977661,467.652588 584.980591,468.143402 
	C585.145752,471.955292 585.450745,475.276520 585.447571,478.597443 
	C585.423645,503.714905 585.109192,528.835327 585.442200,553.947388 
	C585.521301,559.907898 584.475159,564.085144 578.623840,566.191223 
	C578.623840,566.191223 578.340515,566.294128 577.989868,566.567505 
	C575.992249,567.882324 574.345337,568.923828 572.698364,569.965393 
	C572.523621,569.974182 572.348816,569.983032 571.628052,570.296387 
	C567.689026,572.713379 564.296082,574.825928 560.903137,576.938538 
	C560.903137,576.938538 560.976868,576.990601 560.653564,577.020874 
	C559.096924,577.777771 557.863525,578.504395 556.630066,579.231018 
	C556.630066,579.231018 556.391296,579.337219 556.033936,579.611328 
	C550.724121,582.899414 545.771729,585.913391 540.819336,588.927368 
z"/>
<path fill="#090909" opacity="1.000000" stroke="none" 
	d="
M434.003296,753.988281 
	C433.581085,753.658569 433.158875,753.328857 432.302063,752.666748 
	C430.253296,751.528931 428.639160,750.723572 427.024994,749.918213 
	C426.617767,749.591858 426.210541,749.265503 425.355988,748.630981 
	C423.306519,747.491699 421.704376,746.660645 420.102264,745.829529 
	C420.102264,745.829529 420.076202,745.922974 419.957031,745.611755 
	C418.236877,744.495239 416.635864,743.689941 415.034851,742.884644 
	C414.635864,742.560730 414.236908,742.236755 413.395752,741.625183 
	C411.976746,740.865112 410.999939,740.392639 410.023102,739.920166 
	C409.600159,739.602173 409.177216,739.284119 408.299805,738.651123 
	C405.598389,737.166443 403.351471,735.996826 401.104584,734.827148 
	C401.104584,734.827148 401.077362,734.921082 400.960327,734.610107 
	C399.252533,733.490906 397.661743,732.682800 396.070984,731.874634 
	C396.070984,731.874634 396.041962,731.963379 395.933838,731.654053 
	C394.549805,730.542236 393.273865,729.739746 391.998596,728.472473 
	C391.999390,677.388062 392.011749,626.768311 391.955780,576.148682 
	C391.953491,574.093018 391.306213,572.038025 390.959442,569.982727 
	C390.959442,569.982727 391.044067,569.608643 391.384949,569.316528 
	C393.201874,568.048828 394.677917,567.073303 396.153931,566.097778 
	C396.153961,566.097778 396.064758,566.063416 396.409180,566.028442 
	C398.226379,565.014099 399.699158,564.034729 401.171906,563.055359 
	C401.692261,562.875916 402.212585,562.696472 403.156433,562.226929 
	C404.039032,561.585266 404.498077,561.233826 404.957153,560.882385 
	C422.132355,550.561218 439.307556,540.239990 456.937714,529.499023 
	C457.641205,528.733276 457.889740,528.387268 458.138245,528.041260 
	C458.138245,528.041260 458.594574,528.010498 459.097656,527.963501 
	C459.862946,527.649536 460.125153,527.382629 460.387329,527.115662 
	C460.882812,526.960693 461.378296,526.805725 462.230347,526.326782 
	C462.955231,525.958740 463.323547,525.914673 464.077148,525.900635 
	C465.289490,525.233643 466.116608,524.536560 466.943726,523.839478 
	C466.943695,523.839478 466.973511,523.465454 467.323608,523.206665 
	C468.549530,522.330688 469.425354,521.713501 470.301208,521.096375 
	C470.669495,521.063660 471.037781,521.031006 471.691833,521.412659 
	C471.985474,603.606628 472.017181,685.386292 471.876526,767.165588 
	C471.872650,769.420044 470.018158,771.671326 469.026672,773.924072 
	C468.308105,773.597412 467.589508,773.270752 466.390991,772.633301 
	C464.291199,771.494141 462.671356,770.665894 461.051514,769.837585 
	C460.677521,769.513000 460.303528,769.188477 459.510437,768.614868 
	C458.724365,768.233154 458.357391,768.100525 457.990387,767.967896 
	C452.998840,764.956665 448.007324,761.945374 442.499573,758.630676 
	C440.996399,757.860291 440.009399,757.393250 439.022430,756.926270 
	C438.612061,756.599243 438.201721,756.272217 437.352631,755.648926 
	C435.943695,754.897949 434.973511,754.443115 434.003296,753.988281 
z"/>
<path fill="#0A0A0A" opacity="1.000000" stroke="none" 
	d="
M371.704010,570.791626 
	C371.704010,570.791626 371.743652,570.846619 371.736298,571.354858 
	C371.701599,611.607727 371.652191,651.352417 371.664795,691.097046 
	C371.667419,699.396362 371.898895,707.695496 372.024902,715.994751 
	C372.024902,715.994751 371.894470,716.387512 371.683716,716.676941 
	C371.472992,716.966370 371.013336,717.139832 371.013336,717.139832 
	C371.013336,717.139832 370.593445,716.982910 370.267273,716.717102 
	C369.629425,716.312561 369.317749,716.173828 369.006073,716.035095 
	C342.870819,700.678223 316.730255,685.330322 290.609772,669.948425 
	C288.385925,668.638855 286.296021,667.101868 284.016083,664.859436 
	C283.828278,662.719727 283.715393,661.391113 283.716003,660.062439 
	C283.736786,614.962036 283.772644,569.861572 283.781311,524.761169 
	C283.781647,523.120361 283.530548,521.479553 283.775024,519.651855 
	C287.730530,521.367737 291.307739,523.270447 294.884949,525.173157 
	C294.884949,525.173157 294.935883,525.065918 295.052094,525.398438 
	C301.031403,529.058960 306.894501,532.386902 312.757599,535.714844 
	C312.757599,535.714844 313.177551,535.981323 313.588409,536.246582 
	C315.853271,537.597412 317.707275,538.682983 319.561279,539.768494 
	C319.735199,539.862488 319.909088,539.956421 320.529358,540.332703 
	C324.649780,542.690735 328.323883,544.766357 331.997955,546.842041 
	C331.997955,546.842041 332.341949,547.074280 332.728668,547.391174 
	C336.651398,549.715149 340.187378,551.722229 343.723389,553.729248 
	C343.869995,553.816895 344.016632,553.904541 344.572815,554.255005 
	C346.987640,555.636230 348.992920,556.754639 350.998199,557.873108 
	C350.998199,557.873108 351.290131,558.122253 351.667114,558.422974 
	C355.609009,560.751282 359.173889,562.778748 362.738800,564.806274 
	C362.881165,564.899597 363.023560,564.992981 363.565308,565.375916 
	C366.544434,567.374207 369.124207,569.082947 371.704010,570.791626 
z"/>
<path fill="#0A0A0A" opacity="1.000000" stroke="none" 
	d="
M575.661560,715.894531 
	C575.160767,716.056885 574.659912,716.219238 573.737244,716.709473 
	C572.422607,717.655212 571.529785,718.273071 570.636963,718.890991 
	C570.135132,719.042297 569.633301,719.193604 568.725281,719.687378 
	C567.454773,720.657593 566.590393,721.285339 565.726013,721.913086 
	C549.767517,731.493103 533.799377,741.057190 517.854614,750.660034 
	C509.686829,755.579041 501.560883,760.567627 492.760681,765.923706 
	C492.760681,764.141235 492.759308,762.932251 492.760895,761.723267 
	C492.812561,722.630859 492.963226,683.537964 492.780090,644.446655 
	C492.759338,640.012817 493.930847,637.443542 497.851990,635.687073 
	C500.237457,634.618469 502.387665,633.024719 505.083862,631.328247 
	C506.126007,630.613037 506.727875,630.236511 507.329742,629.860046 
	C507.329742,629.860046 507.686218,629.763977 508.014862,629.468079 
	C509.089844,628.721741 509.836212,628.271301 510.582581,627.820923 
	C510.657166,627.581177 510.731750,627.341492 510.563141,626.911499 
	C510.319977,626.721130 510.469818,626.742737 510.469818,626.742737 
	C510.797913,626.873474 511.126038,627.004211 512.251526,626.757385 
	C520.796387,621.629028 528.543945,616.878235 536.291443,612.127441 
	C536.490784,612.105103 536.690125,612.082703 537.416138,611.761780 
	C539.060486,610.682007 540.178284,609.900696 541.296082,609.119385 
	C541.489929,609.098450 541.683777,609.077454 542.400513,608.760132 
	C544.048035,607.661255 545.172791,606.858826 546.297546,606.056396 
	C546.486694,606.045532 546.675781,606.034668 547.389771,605.744995 
	C549.042297,604.655518 550.170044,603.844971 551.297791,603.034363 
	C551.466980,603.023926 551.636169,603.013550 552.304443,602.755554 
	C553.653015,601.961914 554.502563,601.415833 555.352112,600.869812 
	C555.352112,600.869812 555.710266,600.767517 556.079590,600.452271 
	C558.043457,599.120361 559.638062,598.103760 561.232666,597.087097 
	C561.232666,597.087097 561.655457,597.055237 562.128174,596.898499 
	C563.832825,595.844055 565.064758,594.946350 566.296692,594.048645 
	C566.296692,594.048645 566.752930,594.018677 567.256226,593.770996 
	C568.690369,592.945251 569.621216,592.367188 570.552124,591.789124 
	C571.268860,591.403625 571.985657,591.018188 573.165649,590.284180 
	C574.482910,589.310913 575.336975,588.686218 576.190979,588.061523 
	C577.303162,587.494263 578.415283,586.927063 580.046021,586.141724 
	C580.785583,585.639954 581.006470,585.356201 581.227417,585.072510 
	C582.727783,584.532349 584.228149,583.992188 585.769775,584.187500 
	C585.808838,624.505005 585.821289,664.087219 585.764038,703.669312 
	C585.760986,705.764099 585.168945,707.858032 584.851135,709.952393 
	C584.502869,709.945190 584.238525,710.090576 583.685913,710.716797 
	C582.418335,711.659180 581.522827,712.273376 580.627380,712.887634 
	C580.133545,713.052490 579.639648,713.217346 578.734375,713.717957 
	C577.435730,714.667358 576.548645,715.280945 575.661560,715.894531 
z"/>
<path fill="#0A0A09" opacity="1.000000" stroke="none" 
	d="
M445.131775,490.846527 
	C451.703033,494.660889 457.942505,498.315796 464.879333,502.379211 
	C457.417358,506.967346 450.702637,511.130951 443.954010,515.238831 
	C424.877991,526.850220 405.691101,538.284119 386.773102,550.147156 
	C382.162872,553.038147 378.811798,552.853760 374.216797,550.138062 
	C347.899933,534.584473 321.380493,519.373718 294.935577,504.036713 
	C293.960846,503.471375 293.045715,502.803284 291.418304,501.732941 
	C299.268066,496.933167 306.634216,492.402649 314.026062,487.914520 
	C333.384308,476.160736 352.780579,464.469177 372.086487,452.630157 
	C374.636719,451.066284 376.597839,450.718506 379.325745,452.330780 
	C401.100830,465.200287 422.963867,477.920898 445.131775,490.846527 
z"/>
<path fill="#F1761F" opacity="1.000000" stroke="none" 
	d="
M584.772827,467.377319 
	C583.029236,465.905914 581.452820,464.152985 579.517822,463.003876 
	C516.135742,425.364807 452.719086,387.783936 389.308624,350.192688 
	C388.173981,349.520050 387.051910,348.826233 385.598602,348.062500 
	C385.218140,347.812866 385.163086,347.643005 385.052917,346.903229 
	C384.957825,345.899994 384.917847,345.466644 384.877899,345.033325 
	C384.952698,343.623474 385.027527,342.213654 385.097229,339.967041 
	C385.179993,337.980743 385.267883,336.831177 385.355743,335.681641 
	C387.824341,334.059113 390.292969,332.436584 393.002258,330.730316 
	C429.317657,352.153839 465.386810,373.670441 501.468750,395.165619 
	C532.279724,413.520782 563.105347,431.851349 594.282227,450.740662 
	C594.703857,456.617554 594.767700,461.946594 594.831543,467.275635 
	C593.550842,467.449280 592.270203,467.622925 589.903259,467.796570 
	C587.614441,467.701477 586.411926,467.606384 585.155579,467.499268 
	C585.101807,467.487244 584.772827,467.377319 584.772827,467.377319 
z"/>
<path fill="#398E68" opacity="1.000000" stroke="none" 
	d="
M594.824646,467.356079 
	C594.767700,461.946594 594.703857,456.617554 594.587524,450.993103 
	C598.989075,448.250366 603.536926,445.957062 607.871948,443.314758 
	C612.722229,440.358459 617.314636,436.981354 622.139709,433.981110 
	C626.660767,431.169891 631.412903,428.729950 635.931580,425.915131 
	C642.801514,421.635742 649.459778,417.011292 656.388611,412.833130 
	C663.874634,408.318970 671.687256,404.342865 679.136353,399.771912 
	C685.816589,395.672699 692.196655,391.084290 698.877197,386.424255 
	C699.771423,386.458527 700.497620,386.780304 701.581055,387.521057 
	C708.279175,391.056152 710.203247,396.240692 708.963867,402.916107 
	C708.844116,403.561127 708.798767,404.219910 708.718872,404.872314 
	C705.056580,406.187469 701.117065,407.015076 697.784302,408.909851 
	C688.080383,414.426880 678.562988,420.280304 669.079407,426.173920 
	C660.176758,431.706512 651.477173,437.566589 642.558777,443.072754 
	C637.391968,446.262665 631.860107,448.860535 626.688171,452.042664 
	C619.130554,456.692566 611.748596,461.628021 603.667603,466.693054 
	C600.311096,467.161407 597.578796,467.378479 594.846436,467.595581 
	C594.846436,467.595551 594.817749,467.436554 594.824646,467.356079 
z"/>
<path fill="#010101" opacity="1.000000" stroke="none" 
	d="
M469.247162,774.161377 
	C470.018158,771.671326 471.872650,769.420044 471.876526,767.165588 
	C472.017181,685.386292 471.985474,603.606628 471.963562,521.350464 
	C471.949524,520.873962 471.999756,520.501160 472.456909,520.226318 
	C473.274841,521.387390 473.950562,522.823181 473.951416,524.259338 
	C474.001770,606.414307 474.002319,688.569336 473.953705,770.724304 
	C473.952667,772.471191 473.322083,774.217651 472.985138,775.964355 
	C471.812653,775.442444 470.640167,774.920532 469.247162,774.161377 
z"/>
<path fill="#FCFCFC" opacity="1.000000" stroke="none" 
	d="
M473.190308,776.213684 
	C473.322083,774.217651 473.952667,772.471191 473.953705,770.724304 
	C474.002319,688.569336 474.001770,606.414307 473.951416,524.259338 
	C473.950562,522.823181 473.274841,521.387390 472.477234,520.039307 
	C472.539581,519.473206 473.038757,518.819214 473.537933,518.165283 
	C474.265106,518.903992 474.992249,519.642700 475.860779,521.162903 
	C476.007629,604.288696 476.013153,686.632935 476.018677,768.977234 
	C475.144287,771.472473 474.269897,773.967773 473.190308,776.213684 
z"/>
<path fill="#EFEFED" opacity="1.000000" stroke="none" 
	d="
M595.054810,467.933167 
	C597.578796,467.378479 600.311096,467.161407 603.473267,466.974426 
	C603.919861,468.077240 603.936646,469.149963 603.972046,471.077850 
	C604.004944,547.284973 604.019165,622.636902 604.033386,697.988770 
	C603.573547,697.989319 603.113708,697.989807 602.317139,697.517578 
	C601.982483,694.891174 602.079529,692.732544 601.967773,690.584717 
	C601.696899,685.381042 601.328857,680.182434 601.000000,674.981750 
	C601.001038,674.544067 601.002075,674.106384 601.293518,673.041016 
	C601.389282,665.270630 601.194641,658.127991 601.000000,650.985352 
	C601.000000,650.985352 601.002258,650.500000 601.292603,649.957153 
	C601.716309,647.935852 601.965820,646.457520 601.966248,644.979004 
	C601.982849,587.001099 601.976746,529.023132 601.973694,471.045197 
	C599.736877,470.120392 597.500061,469.195587 595.054810,467.933167 
z"/>
<path fill="#010101" opacity="1.000000" stroke="none" 
	d="
M604.341919,697.992065 
	C604.019165,622.636902 604.004944,547.284973 604.060669,471.469330 
	C604.753052,472.831512 605.916870,474.656555 605.919678,476.483398 
	C606.014648,538.385742 605.999329,600.288147 605.999939,662.190613 
	C606.000000,671.509277 605.958252,680.828308 606.035400,690.146301 
	C606.050171,691.931274 606.532166,693.712463 606.971130,695.900085 
	C606.312561,696.868286 605.481445,697.431763 604.341919,697.992065 
z"/>
<path fill="#010101" opacity="1.000000" stroke="none" 
	d="
M390.756561,569.996338 
	C391.306213,572.038025 391.953491,574.093018 391.955780,576.148682 
	C392.011749,626.768311 391.999390,677.388062 391.757263,728.492920 
	C391.515259,728.978088 391.051178,728.839111 391.051178,728.839111 
	C391.063629,728.487183 390.916901,728.223938 390.309052,727.539917 
	C390.003540,700.364990 389.978851,673.699524 390.002502,647.034119 
	C390.025238,621.372192 390.098022,595.710205 390.148804,570.048279 
	C390.148804,570.048279 390.553680,570.009949 390.756561,569.996338 
z"/>
<path fill="#FCFCFC" opacity="1.000000" stroke="none" 
	d="
M389.740601,570.109009 
	C390.098022,595.710205 390.025238,621.372192 390.002502,647.034119 
	C389.978851,673.699524 390.003540,700.364990 390.078003,727.491272 
	C389.438202,726.382385 388.109894,724.813965 388.106445,723.242676 
	C387.997375,673.691833 388.005829,624.140747 388.072540,574.589722 
	C388.074524,573.115906 388.894043,571.643066 389.740601,570.109009 
z"/>
<path fill="#EFEFED" opacity="1.000000" stroke="none" 
	d="
M585.209351,467.511292 
	C586.411926,467.606384 587.614441,467.701477 589.416992,467.872070 
	C585.691772,471.161896 588.395386,476.023773 587.395813,480.034088 
	C586.600403,483.225311 587.940308,486.893646 587.958191,490.352112 
	C588.041504,506.498260 587.995178,522.645081 587.995117,538.791687 
	C587.995117,545.365845 588.019714,551.940063 587.987427,558.514038 
	C587.959167,564.269287 585.306335,566.734802 578.992676,566.408081 
	C584.475159,564.085144 585.521301,559.907898 585.442200,553.947388 
	C585.109192,528.835327 585.423645,503.714905 585.447571,478.597443 
	C585.450745,475.276520 585.145752,471.955292 585.052063,468.163940 
	C585.120605,467.693695 585.209351,467.511292 585.209351,467.511292 
z"/>
<path fill="#FCFCFC" opacity="1.000000" stroke="none" 
	d="
M283.396667,519.838745 
	C283.530548,521.479553 283.781647,523.120361 283.781311,524.761169 
	C283.772644,569.861572 283.736786,614.962036 283.716003,660.062439 
	C283.715393,661.391113 283.828278,662.719727 283.873901,664.516235 
	C283.242096,663.825256 282.086548,662.667297 282.084717,661.507568 
	C282.010590,614.557922 282.040039,567.608154 282.068787,520.658386 
	C282.068970,520.340454 282.243042,520.022644 282.667786,519.562073 
	C283.060608,519.626587 283.192963,519.766357 283.396667,519.838745 
z"/>
<path fill="#FCFCFC" opacity="1.000000" stroke="none" 
	d="
M708.726929,405.359070 
	C708.798767,404.219910 708.844116,403.561127 708.963867,402.916107 
	C710.203247,396.240692 708.279175,391.056152 701.878052,387.597137 
	C707.665955,387.972504 709.957092,390.273010 709.989868,395.821106 
	C710.052795,406.470337 709.998535,417.120239 709.998291,427.769867 
	C709.996765,494.662933 709.999268,561.555969 709.980835,628.449036 
	C709.980408,630.094421 709.751709,631.739807 709.341919,633.685181 
	C708.906616,618.684875 708.635498,603.384460 708.632629,588.084106 
	C708.621216,527.338013 708.693604,466.591888 708.726929,405.359070 
z"/>
<path fill="#E4E1D9" opacity="1.000000" stroke="none" 
	d="
M476.311218,768.683350 
	C476.013153,686.632935 476.007629,604.288696 476.004700,521.476807 
	C476.336945,522.572144 476.954010,524.134827 476.954926,525.697937 
	C477.002655,605.284180 476.999817,684.870422 476.982361,764.456665 
	C476.982056,765.767578 476.735413,767.078491 476.311218,768.683350 
z"/>
<path fill="#FCFCFC" opacity="1.000000" stroke="none" 
	d="
M491.631836,506.323608 
	C492.228058,515.304871 492.790833,524.592468 492.818451,533.881714 
	C492.899902,561.286743 492.769440,588.692444 492.838806,616.554871 
	C492.306335,615.864868 491.092285,614.719055 491.089661,613.570557 
	C491.008789,578.241638 491.045807,542.912354 491.077881,507.583191 
	C491.078186,507.265656 491.257904,506.948212 491.631836,506.323608 
z"/>
<path fill="#E4E1D9" opacity="1.000000" stroke="none" 
	d="
M601.679565,471.334412 
	C601.976746,529.023132 601.982849,587.001099 601.966248,644.979004 
	C601.965820,646.457520 601.716309,647.935852 601.291504,649.714478 
	C600.999146,592.529846 600.994507,535.045105 601.013916,477.560303 
	C601.014587,475.581390 601.256104,473.602539 601.679565,471.334412 
z"/>
<path fill="#E4E1D9" opacity="1.000000" stroke="none" 
	d="
M267.325012,667.657959 
	C267.029022,614.291199 267.025909,560.635498 267.028198,506.517639 
	C267.355225,507.451752 267.956543,508.847717 267.957855,510.244232 
	C268.007019,561.641357 268.002686,613.038513 267.985687,664.435669 
	C267.985382,665.413513 267.745789,666.391174 267.325012,667.657959 
z"/>
<path fill="#FCFCFC" opacity="1.000000" stroke="none" 
	d="
M372.318115,715.698242 
	C371.898895,707.695496 371.667419,699.396362 371.664795,691.097046 
	C371.652191,651.352417 371.701599,611.607727 371.744812,571.387695 
	C372.172150,572.266113 372.941559,573.619507 372.943359,574.973877 
	C373.005096,621.136780 372.995575,667.299805 372.977600,713.462769 
	C372.977356,714.109131 372.738678,714.755432 372.318115,715.698242 
z"/>
<path fill="#FCFCFC" opacity="1.000000" stroke="none" 
	d="
M585.260010,709.891479 
	C585.168945,707.858032 585.760986,705.764099 585.764038,703.669312 
	C585.821289,664.087219 585.808838,624.505005 585.929016,584.467407 
	C586.361389,585.579651 586.948181,587.146912 586.950256,588.714966 
	C587.001404,627.450012 587.006897,666.185059 586.935059,704.920044 
	C586.932068,706.557739 586.109619,708.193787 585.260010,709.891479 
z"/>
<path fill="#EFEFED" opacity="1.000000" stroke="none" 
	d="
M478.204895,278.719421 
	C464.114655,287.681396 449.933960,296.309357 435.407288,305.019043 
	C435.850708,303.828979 436.337769,302.075806 437.476654,301.360687 
	C447.547974,295.036957 457.671082,288.788513 467.925903,282.768341 
	C471.089478,280.911194 474.705566,279.824738 478.204895,278.719421 
z"/>
<path fill="#EFEFED" opacity="1.000000" stroke="none" 
	d="
M493.990570,617.171204 
	C502.310944,611.782898 510.669769,606.696167 519.339233,601.429443 
	C519.116333,602.477661 518.929749,604.258362 517.993958,604.846252 
	C511.029327,609.221619 503.937134,613.396790 496.816132,617.515747 
	C496.126221,617.914856 494.969238,617.506409 493.990570,617.171204 
z"/>
<path fill="#EFEFED" opacity="1.000000" stroke="none" 
	d="
M434.695068,305.046936 
	C426.862640,310.086212 418.621674,315.105530 410.103760,320.290466 
	C409.843781,319.721802 409.576294,318.536346 409.919708,318.319824 
	C417.009460,313.850098 424.146576,309.453522 431.347382,305.165100 
	C432.090820,304.722321 433.295776,305.054443 434.695068,305.046936 
z"/>
<path fill="#EFEFED" opacity="1.000000" stroke="none" 
	d="
M536.216431,611.795166 
	C528.543945,616.878235 520.796387,621.629028 512.749268,626.576111 
	C512.667542,625.598206 512.486938,623.757263 513.164551,623.352295 
	C520.361267,619.050720 527.690002,614.969543 535.012573,610.881714 
	C535.216980,610.767578 535.757507,611.255554 536.216431,611.795166 
z"/>
<path fill="#FCFCFC" opacity="1.000000" stroke="none" 
	d="
M384.602509,381.335541 
	C384.920441,398.032623 384.969574,415.043396 384.970703,432.519775 
	C384.633057,432.413025 384.089081,431.839905 384.090729,431.268311 
	C384.138275,414.728516 384.240387,398.188873 384.602509,381.335541 
z"/>
<path fill="#EFEFED" opacity="1.000000" stroke="none" 
	d="
M541.140015,589.059814 
	C545.771729,585.913391 550.724121,582.899414 555.955505,579.715820 
	C555.175781,581.022583 554.432007,583.059692 552.996826,583.865601 
	C549.315247,585.932861 545.326599,587.453308 541.140015,589.059814 
z"/>
<path fill="#EFEFED" opacity="1.000000" stroke="none" 
	d="
M312.812866,535.313965 
	C306.894501,532.386902 301.031403,529.058960 295.000336,525.427490 
	C296.986389,525.838867 299.173523,526.468628 301.285919,527.290466 
	C303.810730,528.272705 306.433380,529.160461 308.706146,530.581055 
	C310.352722,531.610352 311.498840,533.440247 312.812866,535.313965 
z"/>
<path fill="#EFEFED" opacity="1.000000" stroke="none" 
	d="
M520.792725,601.273193 
	C525.173462,598.159973 529.637817,595.373352 534.438416,592.437500 
	C534.475891,593.322632 534.489380,594.943115 533.827332,595.295959 
	C529.593018,597.552429 525.210266,599.530334 520.792725,601.273193 
z"/>
<path fill="#EFEFED" opacity="1.000000" stroke="none" 
	d="
M409.008118,320.596619 
	C404.861816,323.529694 400.367584,326.249939 395.528748,329.028687 
	C395.011047,328.405945 394.569305,327.188416 394.703674,327.121124 
	C399.322144,324.807983 403.995087,322.603699 409.008118,320.596619 
z"/>
<path fill="#EFEFED" opacity="1.000000" stroke="none" 
	d="
M331.988220,546.483643 
	C328.323883,544.766357 324.649780,542.690735 320.825226,540.351685 
	C321.058350,539.647217 321.732361,538.788940 321.783997,538.824890 
	C325.214172,541.212341 328.594147,543.671875 331.988220,546.483643 
z"/>
<path fill="#FCFCFC" opacity="1.000000" stroke="none" 
	d="
M384.613403,349.328796 
	C384.926636,358.362030 384.967957,367.707184 384.941284,377.515381 
	C384.585480,373.288574 384.140778,368.601624 384.053650,363.908081 
	C383.965454,359.155701 384.230957,354.396759 384.613403,349.328796 
z"/>
<path fill="#EFEFED" opacity="1.000000" stroke="none" 
	d="
M561.312439,576.957031 
	C564.296082,574.825928 567.689026,572.713379 571.406250,570.436829 
	C570.971863,574.160522 567.141052,576.725891 561.312439,576.957031 
z"/>
<path fill="#EFEFED" opacity="1.000000" stroke="none" 
	d="
M343.787872,553.319885 
	C340.187378,551.722229 336.651398,549.715149 332.936005,547.399902 
	C337.202576,547.606262 341.659851,548.098999 343.787872,553.319885 
z"/>
<path fill="#EFEFED" opacity="1.000000" stroke="none" 
	d="
M283.774994,519.651855 
	C283.192963,519.766357 283.060608,519.626587 282.957825,519.278320 
	C285.004303,519.489014 287.275543,519.443054 289.132416,520.297546 
	C291.238098,521.266541 292.972595,523.042114 294.876709,524.820068 
	C291.307739,523.270447 287.730530,521.367737 283.774994,519.651855 
z"/>
<path fill="#EFEFED" opacity="1.000000" stroke="none" 
	d="
M362.749268,564.415344 
	C359.173889,562.778748 355.609009,560.751282 351.859009,558.422241 
	C356.697876,557.593628 359.995880,560.307495 362.749268,564.415344 
z"/>
<path fill="#E4E1D9" opacity="1.000000" stroke="none" 
	d="
M601.001099,675.452271 
	C601.328857,680.182434 601.696899,685.381042 601.967773,690.584717 
	C602.079529,692.732544 601.982483,694.891174 601.972290,697.510620 
	C601.642761,692.777344 601.283386,687.580322 601.018127,682.378418 
	C600.908691,680.231812 601.001465,678.074951 601.001099,675.452271 
z"/>
<path fill="#E4E1D9" opacity="1.000000" stroke="none" 
	d="
M601.000916,651.455444 
	C601.194641,658.127991 601.389282,665.270630 601.291992,672.712769 
	C601.000610,665.983337 601.001221,658.954407 601.000916,651.455444 
z"/>
<path fill="#EFEFED" opacity="1.000000" stroke="none" 
	d="
M371.768921,570.398560 
	C369.124207,569.082947 366.544434,567.374207 363.819824,565.396362 
	C367.117157,563.470154 369.914307,565.142700 371.768921,570.398560 
z"/>
<path fill="#EFEFED" opacity="1.000000" stroke="none" 
	d="
M572.809875,570.323975 
	C574.345337,568.923828 575.992249,567.882324 577.901123,566.689331 
	C577.746887,569.956238 576.072754,571.280029 572.809875,570.323975 
z"/>
<path fill="#EFEFED" opacity="1.000000" stroke="none" 
	d="
M319.676849,539.375122 
	C317.707275,538.682983 315.853271,537.597412 313.837097,536.249512 
	C316.571014,534.460327 318.099945,535.208801 319.676849,539.375122 
z"/>
<path fill="#EFEFED" opacity="1.000000" stroke="none" 
	d="
M350.992065,557.504761 
	C348.992920,556.754639 346.987640,555.636230 344.829041,554.258972 
	C347.856995,552.877014 350.134491,553.572144 350.992065,557.504761 
z"/>
<path fill="#FCFCFC" opacity="1.000000" stroke="none" 
	d="
M401.114624,735.190002 
	C403.351471,735.996826 405.598389,737.166443 408.011536,738.639160 
	C405.826752,737.812378 403.475708,736.682617 401.114624,735.190002 
z"/>
<path fill="#EFEFED" opacity="1.000000" stroke="none" 
	d="
M535.794678,592.291870 
	C536.937866,591.086548 538.173096,590.210999 539.702515,589.285828 
	C539.926086,591.942261 539.120361,593.755676 535.794678,592.291870 
z"/>
<path fill="#EFEFED" opacity="1.000000" stroke="none" 
	d="
M560.815613,597.060181 
	C559.638062,598.103760 558.043457,599.120361 556.180176,600.295532 
	C554.949585,596.090149 558.393311,597.505127 560.815613,597.060181 
z"/>
<path fill="#EFEFED" opacity="1.000000" stroke="none" 
	d="
M566.212891,593.725647 
	C565.064758,594.946350 563.832825,595.844055 562.302246,596.777466 
	C563.378723,595.676331 564.753906,594.539490 566.212891,593.725647 
z"/>
<path fill="#EFEFED" opacity="1.000000" stroke="none" 
	d="
M541.202759,608.768433 
	C540.178284,609.900696 539.060486,610.682007 537.679199,611.615784 
	C537.005127,608.841553 537.912781,607.367920 541.202759,608.768433 
z"/>
<path fill="#EFEFED" opacity="1.000000" stroke="none" 
	d="
M551.194031,602.691528 
	C550.170044,603.844971 549.042297,604.655518 547.640747,605.611755 
	C547.006714,602.872009 547.944580,601.404541 551.194031,602.691528 
z"/>
<path fill="#EFEFED" opacity="1.000000" stroke="none" 
	d="
M546.204956,605.721252 
	C545.172791,606.858826 544.048035,607.661255 542.653809,608.613892 
	C542.030945,605.876709 543.418213,604.910217 546.204956,605.721252 
z"/>
<path fill="#FCFCFC" opacity="1.000000" stroke="none" 
	d="
M490.023560,498.364441 
	C490.666168,499.721191 491.320312,501.484039 491.911926,503.617126 
	C491.244629,502.248413 490.639862,500.509460 490.023560,498.364441 
z"/>
<path fill="#FCFCFC" opacity="1.000000" stroke="none" 
	d="
M415.070984,743.248718 
	C416.635864,743.689941 418.236877,744.495239 420.002686,745.595337 
	C418.480682,745.131042 416.793915,744.371887 415.070984,743.248718 
z"/>
<path fill="#FCFCFC" opacity="1.000000" stroke="none" 
	d="
M461.082520,770.208740 
	C462.671356,770.665894 464.291199,771.494141 466.084717,772.618774 
	C464.543427,772.136658 462.828461,771.358276 461.082520,770.208740 
z"/>
<path fill="#FCFCFC" opacity="1.000000" stroke="none" 
	d="
M427.066193,750.280823 
	C428.639160,750.723572 430.253296,751.528931 432.023254,752.637695 
	C430.488495,752.175232 428.797943,751.409363 427.066193,750.280823 
z"/>
<path fill="#FCFCFC" opacity="1.000000" stroke="none" 
	d="
M420.117401,746.200439 
	C421.704376,746.660645 423.306519,747.491699 425.073181,748.622375 
	C423.535980,748.138367 421.834259,747.354797 420.117401,746.200439 
z"/>
<path fill="#EFEFED" opacity="1.000000" stroke="none" 
	d="
M556.977051,579.433350 
	C557.863525,578.504395 559.096924,577.777771 560.637268,576.978821 
	C559.737488,577.816223 558.530701,578.725891 556.977051,579.433350 
z"/>
<path fill="#FCFCFC" opacity="1.000000" stroke="none" 
	d="
M395.768860,566.073608 
	C394.677917,567.073303 393.201874,568.048828 391.399719,569.125366 
	C392.510345,568.167297 393.947083,567.108337 395.768860,566.073608 
z"/>
<path fill="#FCFCFC" opacity="1.000000" stroke="none" 
	d="
M396.096497,732.239380 
	C397.661743,732.682800 399.252533,733.490906 401.006348,734.593506 
	C399.486969,734.126648 397.804504,733.365417 396.096497,732.239380 
z"/>
<path fill="#FCFCFC" opacity="1.000000" stroke="none" 
	d="
M400.788879,563.040771 
	C399.699158,564.034729 398.226379,565.014099 396.422363,566.074341 
	C397.529388,565.112244 398.967651,564.069214 400.788879,563.040771 
z"/>
<path fill="#FCFCFC" opacity="1.000000" stroke="none" 
	d="
M391.079681,729.204529 
	C391.051178,728.839111 391.515259,728.978088 391.756592,728.957642 
	C393.273865,729.739746 394.549805,730.542236 395.975891,731.633789 
	C394.453461,731.138489 392.780823,730.354187 391.079681,729.204529 
z"/>
<path fill="#EFEFED" opacity="1.000000" stroke="none" 
	d="
M481.844604,276.674927 
	C481.268311,277.453064 480.551453,277.950226 479.531677,278.577820 
	C479.408051,277.246094 478.297974,274.404999 481.844604,276.674927 
z"/>
<path fill="#EFEFED" opacity="1.000000" stroke="none" 
	d="
M554.981628,600.642212 
	C554.502563,601.415833 553.653015,601.961914 552.517090,602.616089 
	C553.024170,601.954407 553.817627,601.184509 554.981628,600.642212 
z"/>
<path fill="#EFEFED" opacity="1.000000" stroke="none" 
	d="
M510.211304,627.577332 
	C509.836212,628.271301 509.089844,628.721741 508.115662,629.313477 
	C508.538544,628.747681 509.189270,628.040710 510.211304,627.577332 
z"/>
<path fill="#FCFCFC" opacity="1.000000" stroke="none" 
	d="
M434.060852,754.348755 
	C434.973511,754.443115 435.943695,754.897949 437.068909,755.639771 
	C436.188751,755.520874 435.153564,755.115112 434.060852,754.348755 
z"/>
<path fill="#FCFCFC" opacity="1.000000" stroke="none" 
	d="
M581.018433,712.916870 
	C581.522827,712.273376 582.418335,711.659180 583.632324,710.946045 
	C583.103821,711.546875 582.256714,712.246521 581.018433,712.916870 
z"/>
<path fill="#FCFCFC" opacity="1.000000" stroke="none" 
	d="
M576.046631,715.922241 
	C576.548645,715.280945 577.435730,714.667358 578.644348,713.972290 
	C578.121155,714.577209 577.276489,715.263611 576.046631,715.922241 
z"/>
<path fill="#FCFCFC" opacity="1.000000" stroke="none" 
	d="
M571.023682,718.918579 
	C571.529785,718.273071 572.422607,717.655212 573.640503,716.963135 
	C573.113831,717.574707 572.262085,718.260498 571.023682,718.918579 
z"/>
<path fill="#FCFCFC" opacity="1.000000" stroke="none" 
	d="
M566.108582,721.937988 
	C566.590393,721.285339 567.454773,720.657593 568.636841,719.943665 
	C568.133484,720.559265 567.312317,721.261047 566.108582,721.937988 
z"/>
<path fill="#FCFCFC" opacity="1.000000" stroke="none" 
	d="
M410.072327,740.290527 
	C410.999939,740.392639 411.976746,740.865112 413.116882,741.623169 
	C412.227295,741.492737 411.174408,741.076782 410.072327,740.290527 
z"/>
<path fill="#EFEFED" opacity="1.000000" stroke="none" 
	d="
M570.196777,591.555298 
	C569.621216,592.367188 568.690369,592.945251 567.438843,593.633606 
	C568.026001,592.936462 568.933716,592.128967 570.196777,591.555298 
z"/>
<path fill="#FCFCFC" opacity="1.000000" stroke="none" 
	d="
M575.818298,588.046326 
	C575.336975,588.686218 574.482910,589.310913 573.309326,590.002808 
	C573.808350,589.390381 574.627014,588.710754 575.818298,588.046326 
z"/>
<path fill="#FCFCFC" opacity="1.000000" stroke="none" 
	d="
M706.194214,636.953552 
	C706.647949,636.295776 707.484314,635.652649 708.623474,634.891113 
	C708.143127,635.504456 707.359985,636.236328 706.194214,636.953552 
z"/>
<path fill="#FCFCFC" opacity="1.000000" stroke="none" 
	d="
M469.920044,521.069458 
	C469.425354,521.713501 468.549530,522.330688 467.350830,523.020996 
	C467.864929,522.410339 468.701904,521.726440 469.920044,521.069458 
z"/>
<path fill="#FCFCFC" opacity="1.000000" stroke="none" 
	d="
M439.074585,757.298584 
	C440.009399,757.393250 440.996399,757.860291 442.151672,758.612854 
	C441.255585,758.489197 440.191162,758.080017 439.074585,757.298584 
z"/>
<path fill="#010101" opacity="1.000000" stroke="none" 
	d="
M466.691833,523.912109 
	C466.116608,524.536560 465.289490,525.233643 464.226624,525.620483 
	C464.464722,524.913330 464.938568,524.516418 465.412445,524.119568 
	C465.754944,524.074646 466.097473,524.029663 466.691833,523.912109 
z"/>
<path fill="#FCFCFC" opacity="1.000000" stroke="none" 
	d="
M465.019958,524.090820 
	C464.938568,524.516418 464.464722,524.913330 463.841370,525.590393 
	C463.323547,525.914673 462.955231,525.958740 462.315674,526.071594 
	C462.905457,525.447632 463.766449,524.754883 465.019958,524.090820 
z"/>
<path fill="#010101" opacity="1.000000" stroke="none" 
	d="
M612.451294,693.107178 
	C612.983887,692.482910 613.848816,691.782104 615.118530,691.106567 
	C614.610107,691.764832 613.696838,692.397766 612.451294,693.107178 
z"/>
<path fill="#010101" opacity="1.000000" stroke="none" 
	d="
M609.353821,695.043518 
	C609.838135,694.437927 610.633484,693.751587 611.802612,693.095215 
	C611.339172,693.737671 610.502075,694.350220 609.353821,695.043518 
z"/>
<path fill="#FCFCFC" opacity="1.000000" stroke="none" 
	d="
M385.063538,335.917053 
	C385.267883,336.831177 385.179993,337.980743 385.018646,339.548889 
	C384.887238,338.695801 384.829285,337.424133 385.063538,335.917053 
z"/>
<path fill="#EFEFED" opacity="1.000000" stroke="none" 
	d="
M507.031097,629.664307 
	C506.727875,630.236511 506.126007,630.613037 505.259888,631.034180 
	C505.574585,630.542114 506.153503,630.005310 507.031097,629.664307 
z"/>
<path fill="#FCFCFC" opacity="1.000000" stroke="none" 
	d="
M404.773804,560.671326 
	C404.498077,561.233826 404.039032,561.585266 403.292908,561.980408 
	C403.534027,561.502808 404.062225,560.981567 404.773804,560.671326 
z"/>
<path fill="#E4E1D9" opacity="1.000000" stroke="none" 
	d="
M267.278473,502.776428 
	C267.031342,502.226379 267.028198,501.503632 267.033722,500.420471 
	C267.202423,500.907990 267.362457,501.755859 267.278473,502.776428 
z"/>
<path fill="#FCFCFC" opacity="1.000000" stroke="none" 
	d="
M371.035278,717.388000 
	C371.013336,717.139832 371.472992,716.966370 371.704041,716.882812 
	C371.853363,717.275208 371.771667,717.751038 371.689972,718.226929 
	C371.479065,718.030029 371.268158,717.833069 371.035278,717.388000 
z"/>
<path fill="#FCFCFC" opacity="1.000000" stroke="none" 
	d="
M384.673218,345.180786 
	C384.917847,345.466644 384.957825,345.899994 384.948181,346.656677 
	C384.755219,346.429474 384.611908,345.878876 384.673218,345.180786 
z"/>
<path fill="#FCFCFC" opacity="1.000000" stroke="none" 
	d="
M460.123108,527.168335 
	C460.125153,527.382629 459.862946,527.649536 459.312012,527.883911 
	C459.301849,527.641235 459.580383,527.431091 460.123108,527.168335 
z"/>
<path fill="#FCFCFC" opacity="1.000000" stroke="none" 
	d="
M580.978394,585.148071 
	C581.006470,585.356201 580.785583,585.639954 580.287476,585.930908 
	C580.250061,585.699890 580.489746,585.461731 580.978394,585.148071 
z"/>
<path fill="#FCFCFC" opacity="1.000000" stroke="none" 
	d="
M393.164825,439.286987 
	C393.353821,439.181824 393.695038,439.294067 394.163544,439.657227 
	C393.966248,439.773590 393.641663,439.638977 393.164825,439.286987 
z"/>
<path fill="#EFEFED" opacity="1.000000" stroke="none" 
	d="
M510.611145,626.528931 
	C510.469818,626.742737 510.319977,626.721130 510.234131,626.728516 
	C510.349701,626.595581 510.551086,626.455322 510.611145,626.528931 
z"/>
<path fill="#FCFCFC" opacity="1.000000" stroke="none" 
	d="
M458.153748,768.209106 
	C458.357391,768.100525 458.724365,768.233154 459.239563,768.625061 
	C459.030914,768.739685 458.674011,768.595032 458.153748,768.209106 
z"/>
<path fill="#FCFCFC" opacity="1.000000" stroke="none" 
	d="
M457.850708,528.181824 
	C457.889740,528.387268 457.641205,528.733276 457.082153,529.214233 
	C457.035492,529.006958 457.299316,528.664673 457.850708,528.181824 
z"/>
<path fill="#FCFCFC" opacity="1.000000" stroke="none" 
	d="
M369.132141,716.256226 
	C369.317749,716.173828 369.629425,716.312561 370.043579,716.703064 
	C369.850098,716.795654 369.554169,716.636475 369.132141,716.256226 
z"/>
<path fill="#398E68" opacity="1.000000" stroke="none" 
	d="
M585.155579,467.499268 
	C585.209351,467.511292 585.120605,467.693695 585.049133,467.673157 
	C584.977661,467.652588 584.776123,467.588531 584.774475,467.482910 
	C584.772827,467.377319 585.101807,467.487244 585.155579,467.499268 
z"/>
</svg>